<svg width="157" height="41" viewBox="0 0 157 41" fill="none" xmlns="http://www.w3.org/2000/svg">
<g clip-path="url(#clip0_150_1589)">
<path d="M26.7927 31.8601C25.8172 31.7502 24.4002 30.9061 22.7099 29.4113C18.3286 25.525 13.3544 18.381 11.6263 13.4835C10.8652 11.3205 10.8316 9.84774 11.5338 9.33337C12.3789 8.71349 14.1911 9.54 16.5121 11.5975C20.8935 15.4838 25.8676 22.6278 27.5958 27.5253C28.3568 29.6883 28.3905 31.1611 27.6883 31.6754C27.457 31.8425 27.1585 31.904 26.7927 31.8645V31.8601ZM12.4252 9.23665C12.0846 9.19708 11.8029 9.25424 11.5884 9.4125C10.9241 9.90049 10.9703 11.3293 11.7146 13.4439C13.4385 18.3282 18.3959 25.4546 22.7688 29.3278C25.0519 31.3501 26.8221 32.1722 27.6252 31.5831C28.2896 31.0951 28.2433 29.6663 27.4991 27.5517C25.7751 22.6674 20.8178 15.541 16.4449 11.6678C14.7672 10.1819 13.367 9.34216 12.421 9.23665H12.4252Z" fill="url(#paint0_linear_150_1589)" stroke="url(#paint1_linear_150_1589)" stroke-width="0.4" stroke-miterlimit="10"/>
<path d="M26.8264 32.7569C25.7374 32.6338 24.1354 31.5963 22.2433 29.7586C17.6854 25.3315 12.7827 17.5896 11.311 12.4943C10.5163 9.74223 10.9788 8.75306 11.5086 8.40575C12.4841 7.77268 14.4772 8.80142 16.979 11.2326C21.5369 15.6597 26.4396 23.4016 27.9112 28.4969C28.7059 31.249 28.2434 32.2381 27.7178 32.5855C27.4782 32.7393 27.1796 32.7965 26.8306 32.7569H26.8264ZM12.3916 8.3398C12.0595 8.30024 11.7777 8.35299 11.5549 8.49807C10.8485 8.95968 10.7938 10.3709 11.3993 12.4679C12.8668 17.5457 17.7611 25.27 22.3064 29.6839C24.7745 32.0799 26.7255 33.1086 27.659 32.4975C28.3654 32.0359 28.42 30.6247 27.8145 28.5277C26.3471 23.4499 21.4528 15.7256 16.9075 11.3117C15.028 9.48724 13.4512 8.4585 12.3916 8.33541V8.3398Z" fill="url(#paint2_linear_150_1589)" stroke="url(#paint3_linear_150_1589)" stroke-width="0.4" stroke-miterlimit="10"/>
<path d="M26.7798 33.6582C25.5604 33.5219 23.7776 32.2689 21.6878 30.0532C16.987 25.0678 12.2146 16.7368 11.0499 11.4788C10.5748 9.33337 10.7472 7.95293 11.5503 7.49131C12.6729 6.84506 14.8552 8.1024 17.5294 10.9424C22.2303 15.9278 27.0026 24.2588 28.1673 29.5168C28.6425 31.6622 28.4701 33.0427 27.667 33.5043C27.4189 33.645 27.1203 33.6977 26.7798 33.6582ZM12.4207 7.44296C12.1011 7.40778 11.8236 7.45175 11.6007 7.58364C10.8481 8.01448 10.6883 9.39492 11.1466 11.4612C12.3113 16.7016 17.0711 25.015 21.7593 29.9872C24.3663 32.7525 26.5569 34.0362 27.6249 33.4208C28.3776 32.9899 28.5373 31.6095 28.079 29.5432C26.9143 24.3028 22.1546 15.9938 17.4663 11.0172C15.4102 8.83659 13.6148 7.57924 12.4249 7.44296H12.4207Z" fill="url(#paint4_linear_150_1589)" stroke="url(#paint5_linear_150_1589)" stroke-width="0.4" stroke-miterlimit="10"/>
<path d="M26.6455 34.5506C25.2832 34.3967 23.307 32.9064 21.0322 30.273C16.2262 24.7117 11.6599 15.8135 10.8526 10.4324C10.5373 8.33541 10.8232 7.00332 11.6809 6.57688C12.9802 5.93062 15.3475 7.43856 18.1856 10.7182C22.9916 16.2795 27.558 25.1777 28.3653 30.5588C28.6806 32.6558 28.3947 33.9879 27.5369 34.4143C27.2804 34.5418 26.9819 34.5858 26.6455 34.5462V34.5506ZM12.5513 6.5505C12.236 6.51533 11.9627 6.5505 11.723 6.6736C10.9115 7.07806 10.6424 8.37497 10.9493 10.4237C11.7524 15.7872 16.3061 24.6633 21.1037 30.2115C23.8662 33.4076 26.2545 34.9463 27.4949 34.3308C28.3064 33.9263 28.5755 32.6294 28.2686 30.5807C27.4655 25.2172 22.9117 16.3411 18.1142 10.7929C15.8772 8.20352 13.8842 6.70438 12.5513 6.5549V6.5505Z" fill="url(#paint6_linear_150_1589)" stroke="url(#paint7_linear_150_1589)" stroke-width="0.4" stroke-miterlimit="10"/>
<path d="M26.4435 35.4211C24.913 35.2496 22.6971 33.4691 20.2752 30.4137C15.4019 24.2676 11.1257 14.8288 10.7347 9.37293C10.5917 7.34624 10.9954 6.07131 11.9078 5.68443C13.3836 5.06015 16.0158 6.89342 18.9423 10.5863C23.8155 16.7324 28.0917 26.1712 28.4828 31.6271C28.6257 33.6538 28.2221 34.9287 27.3097 35.3156C27.0532 35.4255 26.7631 35.4562 26.4435 35.4211ZM12.774 5.68003C12.467 5.64486 12.1895 5.68003 11.9456 5.78115C11.0753 6.14604 10.6926 7.3858 10.8314 9.36854C11.2182 14.8068 15.4902 24.2237 20.3509 30.3521C23.2479 34.0099 25.838 35.8299 27.2718 35.2232C28.1422 34.8584 28.5248 33.6186 28.3861 31.6359C27.9992 26.1976 23.7273 16.7851 18.8666 10.6523C16.4615 7.61881 14.2708 5.84709 12.774 5.68003Z" fill="url(#paint8_linear_150_1589)" stroke="url(#paint9_linear_150_1589)" stroke-width="0.4" stroke-miterlimit="10"/>
<path d="M26.1243 36.2652C24.4045 36.0717 21.9826 33.9923 19.4135 30.4532C14.5235 23.7181 10.6173 13.778 10.7056 8.29584C10.735 6.35267 11.269 5.14808 12.2445 4.81396C13.9516 4.22925 16.7814 6.37025 19.8088 10.5468C24.6989 17.2819 28.6051 27.222 28.5168 32.7042C28.4873 34.6473 27.9533 35.8519 26.9778 36.186C26.7171 36.274 26.4312 36.3003 26.1243 36.2652ZM13.0938 4.83594C12.7953 4.80077 12.522 4.82715 12.2739 4.91068C11.3405 5.23161 10.8317 6.40103 10.8023 8.29584C10.714 13.7561 14.6118 23.6697 19.4892 30.3873C22.4914 34.5242 25.2791 36.6521 26.9442 36.0849C27.8776 35.764 28.3864 34.5946 28.4158 32.6998C28.5041 27.2395 24.6064 17.3259 19.7289 10.6083C17.1766 7.09125 14.7799 5.02498 13.0938 4.83594Z" fill="url(#paint10_linear_150_1589)" stroke="url(#paint11_linear_150_1589)" stroke-width="0.4" stroke-miterlimit="10"/>
<path d="M25.6992 37.0653C23.7608 36.8455 21.1203 34.4407 18.4335 30.3829C13.5812 23.0543 10.146 12.6658 10.7725 7.22314C10.9869 5.37669 11.6513 4.25563 12.6982 3.98306C14.6702 3.47309 17.6934 5.95261 20.7839 10.6171C25.6361 17.9457 29.0714 28.3342 28.4449 33.7769C28.2305 35.6233 27.5661 36.7444 26.5191 37.0169C26.2627 37.0829 25.9893 37.1005 25.6992 37.0653ZM13.5139 4.03142C13.2322 4.00064 12.9673 4.01383 12.7193 4.07978C11.7143 4.33916 11.0752 5.42944 10.865 7.23193C10.2385 12.6526 13.6695 23.0147 18.5092 30.3214C21.5744 34.9507 24.5555 37.417 26.4897 36.9158C27.4946 36.6564 28.1338 35.5662 28.344 33.7637C28.9705 28.3386 25.5394 17.9809 20.6998 10.6742C18.0256 6.63843 15.4187 4.24684 13.5097 4.03142H13.5139Z" fill="url(#paint12_linear_150_1589)" stroke="url(#paint13_linear_150_1589)" stroke-width="0.4" stroke-miterlimit="10"/>
<path d="M25.2072 37.8127C23.0165 37.5665 20.0859 34.7484 17.3444 30.1851C12.5888 22.2761 9.72543 11.5008 10.9532 6.15923C11.3527 4.41829 12.1642 3.39395 13.2994 3.20052C15.5406 2.81804 18.8244 5.73279 21.8771 10.8105C26.6284 18.7195 29.496 29.4993 28.264 34.8364C27.8646 36.5773 27.0531 37.6017 25.9178 37.7951C25.6907 37.8347 25.4511 37.8391 25.203 37.8127H25.2072ZM14.01 3.28405C13.7704 3.25767 13.5391 3.26206 13.3163 3.29723C12.2272 3.48188 11.441 4.47984 11.0499 6.18121C9.82634 11.4964 12.6856 22.2409 17.4243 30.1323C20.4559 35.1749 23.7019 38.0721 25.901 37.6984C26.99 37.5137 27.7763 36.5158 28.1673 34.8144C29.3909 29.4993 26.5317 18.7547 21.793 10.8633C19.0683 6.32629 16.1671 3.52584 14.01 3.28405Z" fill="url(#paint14_linear_150_1589)" stroke="url(#paint15_linear_150_1589)" stroke-width="0.4" stroke-miterlimit="10"/>
<path d="M24.5807 38.5029C22.0873 38.2215 18.9127 34.9946 16.1334 29.8553C11.5461 21.3749 9.36381 10.283 11.2601 5.1261C11.8614 3.49507 12.8327 2.58063 14.0689 2.48831C16.638 2.29048 20.0942 5.60969 23.088 11.1446C27.6712 19.6251 29.8576 30.717 27.9613 35.8739C27.36 37.5049 26.3887 38.4194 25.1525 38.5117C24.9675 38.5249 24.7783 38.5205 24.5807 38.4985V38.5029ZM14.6323 2.59822C14.4431 2.57624 14.2581 2.57184 14.0773 2.58503C12.8832 2.67735 11.9413 3.56541 11.3526 5.16127C9.46472 10.2918 11.647 21.3485 16.2217 29.8026C19.1986 35.3068 22.6213 38.604 25.1483 38.4106C26.3425 38.3182 27.2843 37.4302 27.873 35.8343C29.7609 30.7038 27.5786 19.6471 23.0039 11.193C20.2414 6.08449 17.0963 2.87519 14.6365 2.59822H14.6323Z" fill="url(#paint16_linear_150_1589)" stroke="url(#paint17_linear_150_1589)" stroke-width="0.4" stroke-miterlimit="10"/>
<path d="M23.862 39.114C21.0028 38.7931 17.5676 35.1089 14.8051 29.3718C10.4616 20.3505 9.07405 9.03002 11.7062 4.13693C12.5219 2.6202 13.674 1.83326 15.0405 1.86843C17.9586 1.93877 21.5537 5.68003 24.4171 11.6326C28.7605 20.6539 30.1481 31.9744 27.5159 36.8675C26.7002 38.3842 25.5481 39.1711 24.1816 39.136C24.0765 39.136 23.9714 39.1272 23.862 39.114ZM15.3475 1.98713C15.2424 1.97394 15.1373 1.96955 15.0321 1.96515C13.7077 1.93438 12.585 2.69934 11.7861 4.18529C9.16655 9.05201 10.5583 20.3285 14.8892 29.3234C17.7358 35.2408 21.293 38.9601 24.1816 39.0305C25.5061 39.0612 26.6288 38.2963 27.4276 36.8103C30.0472 31.9436 28.6554 20.6671 24.3246 11.6722C21.5789 5.9658 18.1731 2.30367 15.3475 1.98713Z" fill="url(#paint18_linear_150_1589)" stroke="url(#paint19_linear_150_1589)" stroke-width="0.4" stroke-miterlimit="10"/>
<path d="M23.0545 39.6371C23.025 39.6371 22.9956 39.6283 22.9662 39.624C19.6907 39.1843 16.0116 35.0034 13.3626 28.7167C9.34709 19.1811 8.87196 7.73751 12.303 3.20491C13.3668 1.80249 14.7291 1.16942 16.2596 1.37165C19.5351 1.81128 23.2143 5.99217 25.8632 12.2789C29.8787 21.8145 30.3539 33.2581 26.9228 37.7907C25.88 39.1667 24.5472 39.8042 23.0545 39.6327V39.6371ZM16.1545 1.46397C14.6997 1.30131 13.3962 1.92119 12.3745 3.27086C8.96026 7.77707 9.4438 19.1767 13.4467 28.6771C16.0831 34.9331 19.7327 39.092 22.9746 39.5272C23.004 39.5272 23.0335 39.536 23.0629 39.536C24.5177 39.6987 25.8212 39.0788 26.8429 37.7291C30.2572 33.2229 29.7736 21.8233 25.7707 12.3229C23.1344 6.06251 19.4847 1.908 16.2428 1.47276C16.2134 1.47276 16.184 1.46397 16.1545 1.46397Z" fill="url(#paint20_linear_150_1589)" stroke="url(#paint21_linear_150_1589)" stroke-width="0.4" stroke-miterlimit="10"/>
<path d="M22.1631 40.068C21.9276 40.0416 21.688 39.9976 21.4441 39.9361C17.8364 39.0261 14.1405 34.4055 11.7901 27.8814C8.19081 17.8798 8.75845 6.42741 13.0557 2.35643C14.4096 1.0727 16.041 0.624278 17.7734 1.05951C21.381 1.96955 25.077 6.59007 27.4274 13.1142C31.0266 23.1158 30.459 34.5682 26.1618 38.6392C24.9971 39.7427 23.6263 40.2306 22.1631 40.0636V40.068ZM17.046 1.03314C15.6121 0.870472 14.2666 1.34967 13.1229 2.43116C8.85096 6.48017 8.29593 17.8798 11.8826 27.8462C14.2204 34.3396 17.8911 38.9337 21.4693 39.8394C23.1638 40.2702 24.7658 39.8306 26.0987 38.5688C30.3707 34.5198 30.9257 23.1202 27.3391 13.1538C25.0013 6.66041 21.3306 2.06627 17.7523 1.16063C17.5169 1.09908 17.2814 1.05951 17.0502 1.03314H17.046Z" fill="url(#paint22_linear_150_1589)" stroke="url(#paint23_linear_150_1589)" stroke-width="0.4" stroke-miterlimit="10"/>
<path d="M21.2215 40.4021C20.6791 40.3405 20.1283 40.2043 19.5733 39.9932C15.7007 38.5161 12.0763 33.4823 10.1084 26.8527C7.01798 16.4378 8.76294 5.11291 13.9894 1.60905C15.7049 0.457217 17.6601 0.25059 19.6405 1.00676C23.5131 2.48392 27.1376 7.51769 29.1054 14.1473C32.1916 24.5622 30.4509 35.8871 25.2244 39.3909C23.9882 40.2218 22.6259 40.5604 21.2215 40.4021ZM17.9881 0.699014C16.6047 0.540746 15.2634 0.879262 14.0441 1.69258C8.84703 5.17446 7.12309 16.4466 10.2009 26.8219C12.1561 33.4208 15.7596 38.4282 19.6027 39.8965C21.5537 40.6395 23.4795 40.4373 25.1698 39.303C30.3668 35.8211 32.0865 24.549 29.0129 14.1737C27.0577 7.57484 23.4542 2.56745 19.6111 1.09908C19.0645 0.892451 18.5221 0.756166 17.9881 0.699014Z" fill="url(#paint24_linear_150_1589)" stroke="url(#paint25_linear_150_1589)" stroke-width="0.4" stroke-miterlimit="10"/>
<path d="M20.2626 40.6351C19.2787 40.5252 18.2864 40.2131 17.3067 39.7031C13.2155 37.5709 9.85595 32.3041 8.32123 25.6173C5.84885 14.8595 8.89727 3.8116 15.1203 0.989172C17.2857 2.11596e-06 19.6361 0.10991 21.9151 1.29691C26.0063 3.42912 29.3658 8.69591 30.9006 15.3827C33.3729 26.1405 30.3245 37.1884 24.1015 40.0108C22.8653 40.5736 21.5703 40.7758 20.2584 40.6307L20.2626 40.6351ZM18.9465 0.466011C17.6557 0.320933 16.3733 0.523163 15.1539 1.0771C8.97296 3.88194 5.94976 14.8771 8.40952 25.5909C9.94004 32.2513 13.2786 37.4917 17.3446 39.6108C19.5983 40.7846 21.9193 40.8945 24.0595 39.9229C30.2404 37.1181 33.2636 26.1229 30.8039 15.4091C29.2733 8.74866 25.9348 3.50826 21.8688 1.38924C20.9017 0.883661 19.9178 0.575919 18.9465 0.466011Z" fill="url(#paint26_linear_150_1589)" stroke="url(#paint27_linear_150_1589)" stroke-width="0.4" stroke-miterlimit="10"/>
<path d="M19.3211 40.7714C17.7191 40.5911 16.1339 39.9845 14.6202 38.9601C10.5164 36.186 7.45113 30.6511 6.42097 24.1489C4.67602 13.1274 9.17086 2.52348 16.4408 0.505574C19.1739 -0.250591 21.9953 0.276966 24.6022 2.03549C28.706 4.80956 31.7712 10.3445 32.8014 16.8467C34.5463 27.8682 30.0515 38.4765 22.7857 40.49C21.6421 40.8066 20.4773 40.8989 19.3253 40.7714H19.3211ZM19.8887 0.329722C18.745 0.202229 17.5971 0.290155 16.466 0.606689C9.24234 2.60701 4.78113 13.1626 6.51768 24.1357C7.54363 30.6071 10.5921 36.1201 14.6706 38.8766C17.2523 40.6219 20.0485 41.1451 22.7521 40.3933C29.9758 38.3886 34.437 27.833 32.7005 16.8642C31.6745 10.3929 28.6261 4.8799 24.5475 2.12342C23.0464 1.10787 21.4739 0.50997 19.8887 0.329722Z" fill="url(#paint28_linear_150_1589)" stroke="url(#paint29_linear_150_1589)" stroke-width="0.4" stroke-miterlimit="10"/>
<path d="M18.4545 40.8242C16.0073 40.5472 13.6527 39.4877 11.5293 37.6808C7.52218 34.278 4.93208 28.7255 4.42751 22.452C3.52349 11.2634 9.59931 1.27933 17.9709 0.197835C21.4062 -0.246192 24.7657 0.830904 27.688 3.31482C31.6951 6.71757 34.2852 12.2701 34.7898 18.5436C35.6938 29.7367 29.618 39.7207 21.2464 40.7978C20.3087 40.9209 19.3753 40.9253 18.4545 40.8242ZM20.7502 0.276969C19.8378 0.175854 18.9128 0.18025 17.9835 0.303347C9.66238 1.37165 3.62861 11.3073 4.52422 22.4476C5.02878 28.6947 7.60207 34.2209 11.5923 37.6061C14.4936 40.068 17.8279 41.1407 21.2338 40.7011C29.5507 39.6284 35.5887 29.6927 34.6931 18.5568C34.1885 12.3097 31.6152 6.78351 27.6249 3.39835C25.5184 1.60465 23.1806 0.54954 20.7502 0.276969Z" fill="url(#paint30_linear_150_1589)" stroke="url(#paint31_linear_150_1589)" stroke-width="0.4" stroke-miterlimit="10"/>
<path d="M17.8448 40.8153C14.2329 40.4065 10.8187 38.6656 8.09826 35.7992C4.41492 31.926 2.32097 26.3515 2.3504 20.5088C2.41347 9.25863 10.2048 0.0967176 19.7243 0.087925C23.9374 0.087925 27.9866 1.89921 31.1233 5.19644C34.8066 9.06959 36.9006 14.6441 36.8711 20.4868C36.8081 31.7414 29.0167 40.9033 19.4972 40.9077C18.9422 40.9077 18.3914 40.8769 17.8448 40.8153ZM21.3641 0.281363C20.8217 0.219814 20.2751 0.18904 19.7243 0.18904C10.2595 0.197833 2.51018 9.31578 2.44711 20.5132C2.41347 26.3339 4.49902 31.8777 8.16553 35.7332C11.2812 39.0085 15.3051 40.811 19.4972 40.811C28.9621 40.8066 36.7114 31.6886 36.7744 20.4912C36.8081 14.6705 34.7225 9.12674 31.056 5.27118C28.344 2.42237 24.955 0.685823 21.3641 0.281363Z" fill="url(#paint32_linear_150_1589)" stroke="url(#paint33_linear_150_1589)" stroke-width="0.4" stroke-miterlimit="10"/>
<path d="M17.517 40.7934C6.81178 39.5888 -0.95433 29.5037 0.197763 18.3106C1.34986 7.12203 10.9997 -1.00236 21.7007 0.202231C32.4059 1.40682 40.172 11.4964 39.0199 22.685C37.8678 33.878 28.218 41.998 17.517 40.7934ZM21.6923 0.303346C11.0417 -0.896847 1.44236 7.18797 0.294471 18.3238C-0.853417 29.4597 6.87486 39.4965 17.5254 40.6967C28.176 41.8969 37.7753 33.8164 38.9232 22.6806C40.0711 11.5447 32.3428 1.50354 21.6923 0.303346Z" fill="url(#paint34_linear_150_1589)" stroke="url(#paint35_linear_150_1589)" stroke-width="0.4" stroke-miterlimit="10"/>
<path d="M44.0151 16.5213C44.0151 11.2853 47.77 7.58803 53.0595 7.58803C56.3139 7.58803 58.9125 8.99485 60.1949 11.6458L57.1927 13.4791C56.192 11.8085 54.6909 11.0567 53.0301 11.0567C50.1498 11.0567 47.9634 13.1494 47.9634 16.5213C47.9634 19.8933 50.154 21.986 53.0301 21.986C54.6867 21.986 56.192 21.2342 57.1927 19.5636L60.1949 21.3968C58.9125 24.0127 56.3139 25.4854 53.0595 25.4854C47.77 25.4854 44.0151 21.7573 44.0151 16.5213Z" fill="#F8F7FB"/>
<path d="M64.1978 0.980377H68.1081V25.2568H64.1978V0.980377Z" fill="#F8F7FB"/>
<path d="M71.4844 2.45314C71.4844 1.0771 72.5482 0 73.9904 0C75.4326 0 76.4922 1.01555 76.4922 2.35642C76.4922 3.79402 75.4578 4.90628 73.9904 4.90628C72.5229 4.90628 71.4886 3.82479 71.4886 2.45314H71.4844ZM72.0184 7.78587H75.9288V25.2568H72.0184V7.78587Z" fill="#F8F7FB"/>
<path d="M85.3767 6.87144V7.91776H89.9767V11.1886H85.5029V25.2568H81.5925V11.1886H78.8384V7.91776H81.5925V6.80549C81.5925 3.14336 83.6906 0.75177 87.5674 0.75177C88.9129 0.75177 90.229 1.04632 91.1035 1.70137L90.0103 4.77879C89.4175 4.35235 88.6648 4.0578 87.8533 4.0578C86.2261 4.0578 85.3809 5.0074 85.3809 6.87144H85.3767Z" fill="#F8F7FB"/>
<path d="M102.179 24.3072C101.242 25.0941 99.833 25.4854 98.4244 25.4854C94.7621 25.4854 92.6682 23.4587 92.6682 19.5944V11.1886H89.9141V7.91776H92.6682V3.92591H96.5785V7.91776H101.052V11.1886H96.5785V19.4976C96.5785 21.199 97.3943 22.1134 98.8953 22.1134C99.7069 22.1134 100.489 21.8848 101.086 21.3924L102.179 24.3028V24.3072Z" fill="#F8F7FB"/>
<path d="M103.461 16.5213C103.461 11.2853 107.216 7.58803 112.346 7.58803C117.476 7.58803 121.264 11.2853 121.264 16.5213C121.264 21.7573 117.539 25.4854 112.346 25.4854C107.153 25.4854 103.461 21.7573 103.461 16.5213ZM117.324 16.5213C117.324 13.1845 115.197 11.0567 112.35 11.0567C109.504 11.0567 107.405 13.1845 107.405 16.5213C107.405 19.8581 109.533 21.986 112.35 21.986C115.167 21.986 117.324 19.8581 117.324 16.5213Z" fill="#F8F7FB"/>
<path d="M139.916 15.2464V25.2568H136.006V15.7696C136.006 12.6614 134.534 11.1578 132.032 11.1578C129.249 11.1578 127.369 12.9252 127.369 16.4246V25.2568H123.459V7.78587H127.184V10.0412C128.467 8.43652 130.502 7.58803 132.941 7.58803C136.948 7.58803 139.92 9.97523 139.92 15.242L139.916 15.2464Z" fill="#F8F7FB"/>
<path d="M142.355 23.5203L143.856 20.4121C145.328 21.4276 147.582 22.1442 149.676 22.1442C152.148 22.1442 153.178 21.4232 153.178 20.2142C153.178 16.8774 142.851 20.0164 142.851 13.0483C142.851 9.74223 145.698 7.58364 150.205 7.58364C152.426 7.58364 154.961 8.14197 156.462 9.08718L154.961 12.1954C153.367 11.215 151.77 10.8853 150.172 10.8853C147.792 10.8853 146.669 11.703 146.669 12.846C146.669 16.3807 156.996 13.2373 156.996 20.078C156.996 23.3488 154.116 25.4766 149.423 25.4766C146.64 25.4766 143.852 24.6237 142.351 23.5115L142.355 23.5203Z" fill="#F8F7FB"/>
<path d="M52.0966 38.1424V39.2107H46.1343V30.6203H51.9326V31.6886H47.3074V34.3264H51.428V35.3683H47.3074V38.1424H52.0966Z" fill="#F8F7FB"/>
<path d="M60.8971 30.6203L57.2936 39.2107H56.1331L52.5171 30.6203H53.7827L56.7386 37.6764L59.7198 30.6203H60.8929H60.8971Z" fill="#F8F7FB"/>
<path d="M67.7846 38.1424V39.2107H61.8223V30.6203H67.6206V31.6886H62.9954V34.3264H67.116V35.3683H62.9954V38.1424H67.7846Z" fill="#F8F7FB"/>
<path d="M76.6313 30.6203V39.2107H75.6684L70.7405 32.8053V39.2107H69.5674V30.6203H70.5303L75.4582 37.0257V30.6203H76.6313Z" fill="#F8F7FB"/>
<path d="M80.6087 31.6886H77.7915V30.6203H84.5863V31.6886H81.7692V39.2107H80.6087V31.6886Z" fill="#F8F7FB"/>
<path d="M88.0342 38.2303L88.4673 37.2719C89.0769 37.8478 90.1239 38.2655 91.1793 38.2655C92.6005 38.2655 93.2102 37.6896 93.2102 36.9422C93.2102 34.8452 88.236 36.1685 88.236 32.9811C88.236 31.6578 89.2199 30.528 91.3811 30.528C92.344 30.528 93.3405 30.7962 94.0217 31.2885L93.6349 32.2689C92.9201 31.7897 92.1086 31.5699 91.3811 31.5699C89.9852 31.5699 89.3881 32.1854 89.3881 32.9328C89.3881 35.0298 94.3623 33.7197 94.3623 36.8719C94.3623 38.1864 93.3532 39.3118 91.1835 39.3118C89.9263 39.3118 88.6943 38.8722 88.0384 38.2303H88.0342Z" fill="#F8F7FB"/>
<path d="M95.2876 34.9155C95.2876 32.4008 97.1419 30.5236 99.6647 30.5236C102.188 30.5236 104.017 32.3876 104.017 34.9155C104.017 37.4434 102.162 39.3074 99.6647 39.3074C97.1671 39.3074 95.2876 37.4302 95.2876 34.9155ZM102.843 34.9155C102.843 33.0119 101.481 31.6139 99.6647 31.6139C97.8483 31.6139 96.4607 33.0119 96.4607 34.9155C96.4607 36.8191 97.823 38.2171 99.6647 38.2171C101.506 38.2171 102.843 36.8191 102.843 34.9155Z" fill="#F8F7FB"/>
<path d="M105.694 30.6203H106.867V38.1424H111.316V39.2107H105.694V30.6203Z" fill="#F8F7FB"/>
<path d="M112.337 35.5046V30.6203H113.511V35.4563C113.511 37.3599 114.343 38.2171 115.823 38.2171C117.303 38.2171 118.148 37.3599 118.148 35.4563V30.6203H119.288V35.5046C119.288 37.9973 117.984 39.3074 115.815 39.3074C113.645 39.3074 112.342 37.9929 112.342 35.5046H112.337Z" fill="#F8F7FB"/>
<path d="M123.047 31.6886H120.23V30.6203H127.025V31.6886H124.208V39.2107H123.047V31.6886Z" fill="#F8F7FB"/>
<path d="M128.189 30.6203H129.363V39.2107H128.189V30.6203Z" fill="#F8F7FB"/>
<path d="M131.04 34.9155C131.04 32.4008 132.894 30.5236 135.417 30.5236C137.94 30.5236 139.769 32.3876 139.769 34.9155C139.769 37.4434 137.915 39.3074 135.417 39.3074C132.92 39.3074 131.04 37.4302 131.04 34.9155ZM138.596 34.9155C138.596 33.0119 137.234 31.6139 135.417 31.6139C133.601 31.6139 132.213 33.0119 132.213 34.9155C132.213 36.8191 133.575 38.2171 135.417 38.2171C137.259 38.2171 138.596 36.8191 138.596 34.9155Z" fill="#F8F7FB"/>
<path d="M148.511 30.6203V39.2107H147.548L142.62 32.8053V39.2107H141.447V30.6203H142.41L147.338 37.0257V30.6203H148.511Z" fill="#F8F7FB"/>
<path d="M150.104 38.2303L150.538 37.2719C151.147 37.8478 152.194 38.2655 153.25 38.2655C154.671 38.2655 155.28 37.6896 155.28 36.9422C155.28 34.8452 150.306 36.1685 150.306 32.9811C150.306 31.6578 151.29 30.528 153.451 30.528C154.414 30.528 155.411 30.7962 156.092 31.2885L155.705 32.2689C154.99 31.7897 154.179 31.5699 153.451 31.5699C152.055 31.5699 151.458 32.1854 151.458 32.9328C151.458 35.0298 156.433 33.7197 156.433 36.8719C156.433 38.1864 155.423 39.3118 153.254 39.3118C151.997 39.3118 150.765 38.8722 150.109 38.2303H150.104Z" fill="#F8F7FB"/>
</g>
<defs>
<linearGradient id="paint0_linear_150_1589" x1="10.1057" y1="19.4229" x2="29.1248" y2="21.383" gradientUnits="userSpaceOnUse">
<stop stop-color="#06A7E0"/>
<stop offset="1" stop-color="#683F99"/>
</linearGradient>
<linearGradient id="paint1_linear_150_1589" x1="10.9451" y1="20.5" x2="28.2727" y2="20.5" gradientUnits="userSpaceOnUse">
<stop stop-color="#06A7E0"/>
<stop offset="1" stop-color="#683F99"/>
</linearGradient>
<linearGradient id="paint2_linear_150_1589" x1="10.8795" y1="20.4917" x2="28.333" y2="20.4905" gradientUnits="userSpaceOnUse">
<stop stop-color="#06A7E0"/>
<stop offset="1" stop-color="#683F99"/>
</linearGradient>
<linearGradient id="paint3_linear_150_1589" x1="10.798" y1="20.5" x2="28.42" y2="20.5" gradientUnits="userSpaceOnUse">
<stop stop-color="#06A7E0"/>
<stop offset="1" stop-color="#683F99"/>
</linearGradient>
<linearGradient id="paint4_linear_150_1589" x1="9.72916" y1="19.3805" x2="29.5015" y2="21.4182" gradientUnits="userSpaceOnUse">
<stop stop-color="#06A7E0"/>
<stop offset="1" stop-color="#683F99"/>
</linearGradient>
<linearGradient id="paint5_linear_150_1589" x1="10.7009" y1="20.5" x2="28.5163" y2="20.5" gradientUnits="userSpaceOnUse">
<stop stop-color="#06A7E0"/>
<stop offset="1" stop-color="#683F99"/>
</linearGradient>
<linearGradient id="paint6_linear_150_1589" x1="9.62078" y1="19.3683" x2="29.6149" y2="21.4288" gradientUnits="userSpaceOnUse">
<stop stop-color="#06A7E0"/>
<stop offset="1" stop-color="#683F99"/>
</linearGradient>
<linearGradient id="paint7_linear_150_1589" x1="10.6466" y1="20.5" x2="28.5713" y2="20.5" gradientUnits="userSpaceOnUse">
<stop stop-color="#06A7E0"/>
<stop offset="1" stop-color="#683F99"/>
</linearGradient>
<linearGradient id="paint8_linear_150_1589" x1="9.55369" y1="19.3608" x2="29.6817" y2="21.4351" gradientUnits="userSpaceOnUse">
<stop stop-color="#06A7E0"/>
<stop offset="1" stop-color="#683F99"/>
</linearGradient>
<linearGradient id="paint9_linear_150_1589" x1="10.6211" y1="20.5" x2="28.5963" y2="20.5" gradientUnits="userSpaceOnUse">
<stop stop-color="#06A7E0"/>
<stop offset="1" stop-color="#683F99"/>
</linearGradient>
<linearGradient id="paint10_linear_150_1589" x1="9.52476" y1="19.3575" x2="29.7113" y2="21.4378" gradientUnits="userSpaceOnUse">
<stop stop-color="#06A7E0"/>
<stop offset="1" stop-color="#683F99"/>
</linearGradient>
<linearGradient id="paint11_linear_150_1589" x1="10.6173" y1="20.5" x2="28.6009" y2="20.5" gradientUnits="userSpaceOnUse">
<stop stop-color="#06A7E0"/>
<stop offset="1" stop-color="#683F99"/>
</linearGradient>
<linearGradient id="paint12_linear_150_1589" x1="10.6972" y1="20.4933" x2="28.5189" y2="20.4896" gradientUnits="userSpaceOnUse">
<stop stop-color="#06A7E0"/>
<stop offset="1" stop-color="#683F99"/>
</linearGradient>
<linearGradient id="paint13_linear_150_1589" x1="10.6169" y1="20.5" x2="28.6047" y2="20.5" gradientUnits="userSpaceOnUse">
<stop stop-color="#06A7E0"/>
<stop offset="1" stop-color="#683F99"/>
</linearGradient>
<linearGradient id="paint14_linear_150_1589" x1="9.51596" y1="19.3565" x2="29.7193" y2="21.4386" gradientUnits="userSpaceOnUse">
<stop stop-color="#06A7E0"/>
<stop offset="1" stop-color="#683F99"/>
</linearGradient>
<linearGradient id="paint15_linear_150_1589" x1="10.5832" y1="20.5" x2="28.634" y2="20.5" gradientUnits="userSpaceOnUse">
<stop stop-color="#06A7E0"/>
<stop offset="1" stop-color="#683F99"/>
</linearGradient>
<linearGradient id="paint16_linear_150_1589" x1="9.48249" y1="19.3527" x2="29.7486" y2="21.4413" gradientUnits="userSpaceOnUse">
<stop stop-color="#06A7E0"/>
<stop offset="1" stop-color="#683F99"/>
</linearGradient>
<linearGradient id="paint17_linear_150_1589" x1="10.4907" y1="20.5" x2="28.7265" y2="20.5" gradientUnits="userSpaceOnUse">
<stop stop-color="#06A7E0"/>
<stop offset="1" stop-color="#683F99"/>
</linearGradient>
<linearGradient id="paint18_linear_150_1589" x1="9.38253" y1="19.3414" x2="29.8495" y2="21.4507" gradientUnits="userSpaceOnUse">
<stop stop-color="#06A7E0"/>
<stop offset="1" stop-color="#683F99"/>
</linearGradient>
<linearGradient id="paint19_linear_150_1589" x1="10.2892" y1="20.5" x2="28.9287" y2="20.5" gradientUnits="userSpaceOnUse">
<stop stop-color="#06A7E0"/>
<stop offset="1" stop-color="#683F99"/>
</linearGradient>
<linearGradient id="paint20_linear_150_1589" x1="9.1607" y1="19.3165" x2="30.0712" y2="21.4714" gradientUnits="userSpaceOnUse">
<stop stop-color="#06A7E0"/>
<stop offset="1" stop-color="#683F99"/>
</linearGradient>
<linearGradient id="paint21_linear_150_1589" x1="9.91893" y1="20.5" x2="29.2985" y2="20.5" gradientUnits="userSpaceOnUse">
<stop stop-color="#06A7E0"/>
<stop offset="1" stop-color="#683F99"/>
</linearGradient>
<linearGradient id="paint22_linear_150_1589" x1="8.75939" y1="19.2713" x2="30.4775" y2="21.5095" gradientUnits="userSpaceOnUse">
<stop stop-color="#06A7E0"/>
<stop offset="1" stop-color="#683F99"/>
</linearGradient>
<linearGradient id="paint23_linear_150_1589" x1="9.3387" y1="20.5" x2="29.8788" y2="20.5" gradientUnits="userSpaceOnUse">
<stop stop-color="#06A7E0"/>
<stop offset="1" stop-color="#683F99"/>
</linearGradient>
<linearGradient id="paint24_linear_150_1589" x1="8.11587" y1="19.1987" x2="31.1229" y2="21.5697" gradientUnits="userSpaceOnUse">
<stop stop-color="#06A7E0"/>
<stop offset="1" stop-color="#683F99"/>
</linearGradient>
<linearGradient id="paint25_linear_150_1589" x1="8.49804" y1="20.5" x2="30.72" y2="20.5" gradientUnits="userSpaceOnUse">
<stop stop-color="#06A7E0"/>
<stop offset="1" stop-color="#683F99"/>
</linearGradient>
<linearGradient id="paint26_linear_150_1589" x1="7.17922" y1="19.0932" x2="32.0567" y2="21.657" gradientUnits="userSpaceOnUse">
<stop stop-color="#06A7E0"/>
<stop offset="1" stop-color="#683F99"/>
</linearGradient>
<linearGradient id="paint27_linear_150_1589" x1="7.37516" y1="20.5" x2="31.8424" y2="20.5" gradientUnits="userSpaceOnUse">
<stop stop-color="#06A7E0"/>
<stop offset="1" stop-color="#683F99"/>
</linearGradient>
<linearGradient id="paint28_linear_150_1589" x1="5.92952" y1="18.9524" x2="33.3136" y2="21.7745" gradientUnits="userSpaceOnUse">
<stop stop-color="#06A7E0"/>
<stop offset="1" stop-color="#683F99"/>
</linearGradient>
<linearGradient id="paint29_linear_150_1589" x1="5.96266" y1="20.5" x2="33.2597" y2="20.5" gradientUnits="userSpaceOnUse">
<stop stop-color="#06A7E0"/>
<stop offset="1" stop-color="#683F99"/>
</linearGradient>
<linearGradient id="paint30_linear_150_1589" x1="4.34468" y1="18.7739" x2="34.8965" y2="21.9225" gradientUnits="userSpaceOnUse">
<stop stop-color="#06A7E0"/>
<stop offset="1" stop-color="#683F99"/>
</linearGradient>
<linearGradient id="paint31_linear_150_1589" x1="4.25512" y1="20.5" x2="34.9622" y2="20.5" gradientUnits="userSpaceOnUse">
<stop stop-color="#06A7E0"/>
<stop offset="1" stop-color="#683F99"/>
</linearGradient>
<linearGradient id="paint32_linear_150_1589" x1="2.43003" y1="18.5582" x2="36.815" y2="22.1018" gradientUnits="userSpaceOnUse">
<stop stop-color="#06A7E0"/>
<stop offset="1" stop-color="#683F99"/>
</linearGradient>
<linearGradient id="paint33_linear_150_1589" x1="2.26631" y1="20.5" x2="36.9552" y2="20.5" gradientUnits="userSpaceOnUse">
<stop stop-color="#06A7E0"/>
<stop offset="1" stop-color="#683F99"/>
</linearGradient>
<linearGradient id="paint34_linear_150_1589" x1="0.193622" y1="18.3062" x2="39.0561" y2="22.3112" gradientUnits="userSpaceOnUse">
<stop stop-color="#06A7E0"/>
<stop offset="1" stop-color="#683F99"/>
</linearGradient>
<linearGradient id="paint35_linear_150_1589" x1="0.000141177" y1="20.5" x2="39.2176" y2="20.5" gradientUnits="userSpaceOnUse">
<stop stop-color="#06A7E0"/>
<stop offset="1" stop-color="#683F99"/>
</linearGradient>
<clipPath id="clip0_150_1589">
<rect width="157" height="41" fill="white"/>
</clipPath>
</defs>
</svg>
