<svg width="461" height="419" viewBox="0 0 461 419" fill="none" xmlns="http://www.w3.org/2000/svg">
<path d="M377.542 429.613C363.745 428.101 343.71 416.761 319.801 396.443C257.808 343.899 187.592 247.318 163.116 181.072C152.343 151.87 151.87 131.93 161.793 124.937C173.7 116.621 199.405 127.772 232.103 155.556C294.096 208.099 364.312 304.681 388.788 370.927C399.561 400.128 400.034 420.068 390.111 427.061C386.898 429.33 382.645 430.086 377.542 429.613ZM174.456 123.709C169.637 123.142 165.668 123.992 162.644 126.071C153.288 132.686 153.855 151.965 164.439 180.599C188.821 246.656 258.942 342.954 320.746 395.403C352.971 422.714 378.015 433.866 389.449 425.927C398.805 419.312 398.238 400.034 387.654 371.4C363.272 305.342 293.151 209.044 231.347 156.596C207.627 136.561 187.781 125.221 174.456 123.709Z" fill="url(#paint0_linear_150_1737)"/>
<path d="M377.92 435.661C363.367 434.054 342.009 421.391 316.683 398.899C253.461 342.765 183.529 242.12 160.848 174.551C148.279 137.128 154.328 123.614 161.51 118.794C174.362 110.289 201.201 122.858 235.316 153.099C298.538 209.233 368.47 309.878 391.151 377.447C403.719 414.776 397.671 428.384 390.489 433.204C387.182 435.377 382.929 436.228 377.92 435.661ZM174.079 117.66C169.353 117.188 165.384 117.849 162.266 119.928C152.627 126.354 152.532 145.538 162.077 174.078C184.757 241.458 254.5 341.914 317.533 397.86C351.082 427.723 377.448 440.102 389.639 432.07C399.278 425.644 399.372 406.46 389.828 377.92C367.147 310.54 297.404 210.084 234.371 154.138C209.328 131.836 188.254 119.172 174.079 117.66Z" fill="url(#paint1_linear_150_1737)"/>
<path d="M378.015 441.71C362.611 440.009 340.025 426.022 313.28 401.168C248.924 341.348 179.56 236.64 158.674 167.747C147.429 130.513 153.949 117.188 161.415 112.463C175.212 103.864 203.374 117.85 238.718 150.642C303.074 210.462 372.439 315.171 393.23 384.063C404.475 421.297 397.955 434.622 390.489 439.347C387.181 441.521 383.023 442.277 378.015 441.71ZM173.984 111.613C169.259 111.14 165.29 111.802 162.171 113.786C152.154 120.024 151.398 139.113 159.998 167.464C180.788 236.167 249.964 340.592 314.225 400.223C349.097 432.638 376.692 446.529 389.922 438.308C399.939 432.07 400.695 412.981 392.095 384.63C371.305 315.927 302.224 211.502 237.962 151.871C211.312 127.111 189.01 113.219 173.984 111.613Z" fill="url(#paint2_linear_150_1737)"/>
<path d="M377.826 447.852C361.571 446.057 337.662 430.653 309.5 403.341C244.01 339.741 175.496 231.064 156.785 161.037C148.941 131.742 150.642 112.841 161.699 106.415C176.441 97.7206 206.02 113.125 242.593 148.752C308.083 212.352 376.597 321.03 395.309 391.056C403.152 420.352 401.451 439.252 390.395 445.679C386.898 447.663 382.74 448.419 377.826 447.852ZM174.173 105.47C169.542 104.997 165.573 105.659 162.36 107.549C152.059 113.597 150.547 132.498 158.108 160.659C176.819 230.497 245.144 338.891 310.446 402.302C346.64 437.457 375.463 452.766 389.733 444.45C400.034 438.402 401.546 419.501 393.986 391.34C375.274 321.502 306.949 213.108 241.648 149.697C213.581 122.575 190.049 107.171 174.173 105.47Z" fill="url(#paint3_linear_150_1737)"/>
<path d="M377.353 453.9C360.154 452.01 334.922 435.094 305.342 405.137C238.907 337.851 171.527 225.204 154.989 154.044C148.279 125.032 150.737 106.415 162.077 100.083C177.953 91.3887 208.761 108.399 246.657 146.767C313.092 214.147 380.566 326.794 397.01 397.86C403.72 426.872 401.262 445.489 389.922 451.821C386.426 453.806 382.173 454.467 377.353 453.9ZM174.362 99.516C169.826 99.0434 165.951 99.6105 162.738 101.406C152.154 107.265 149.886 125.882 156.312 153.855C172.756 224.732 240.041 337.095 306.288 404.286C343.143 441.615 374.14 459.003 389.166 450.687C399.75 444.828 402.018 426.211 395.592 398.238C379.149 327.361 311.863 214.998 245.617 147.807C216.605 118.322 191.184 101.312 174.362 99.516Z" fill="url(#paint4_linear_150_1737)"/>
<path d="M376.597 459.949C358.358 457.965 331.803 439.442 300.996 406.744C233.71 335.489 167.653 218.968 153.572 146.957C147.996 118.228 151.209 99.8948 162.927 93.8467C180.032 85.0579 212.163 103.769 251.193 145.067C318.478 216.322 384.536 332.843 398.617 404.854C404.192 433.583 400.979 451.916 389.261 457.965C385.575 459.855 381.417 460.516 376.597 459.949ZM175.118 93.4687C170.677 92.9962 166.708 93.5632 163.494 95.2642C152.343 101.029 149.414 118.795 154.895 146.863C168.881 218.59 234.844 334.828 301.941 405.894C339.931 446.152 372.25 465.147 388.505 456.83C399.656 451.16 402.586 433.299 397.104 405.232C383.118 333.505 317.155 217.267 250.059 146.201C219.723 113.976 192.979 95.3587 175.118 93.4687Z" fill="url(#paint5_linear_150_1737)"/>
<path d="M375.463 465.997C356.185 463.918 328.306 443.789 296.176 408.162C228.228 333.032 163.683 212.636 152.343 139.964C147.901 111.613 151.965 93.563 164.061 87.7984C182.395 79.0097 215.943 99.4222 256.012 143.838C323.865 218.968 388.41 339.269 399.75 412.036C404.192 440.387 400.128 458.437 388.032 464.202C384.441 465.903 380.188 466.47 375.463 465.997ZM176.252 87.4204C171.81 86.9479 167.936 87.5149 164.534 89.0269C153.004 94.5081 149.224 111.991 153.571 139.68C164.912 212.164 229.362 332.182 297.121 407.217C336.15 450.404 369.982 471.289 387.465 462.878C398.994 457.397 402.774 439.82 398.427 412.225C387.087 339.742 322.636 219.724 254.878 144.689C223.22 109.817 195.058 89.4994 176.252 87.4204Z" fill="url(#paint6_linear_150_1737)"/>
<path d="M374.329 471.856C353.917 469.682 323.959 447.474 290.883 409.295C222.369 330.196 159.714 206.209 151.209 132.781C147.996 104.903 152.815 87.2308 165.29 81.7496C184.757 73.1499 220.479 96.0195 260.926 142.798C329.535 221.897 392.19 345.884 400.695 419.218C403.908 447.096 399.089 464.768 386.614 470.249C383.118 471.856 378.96 472.328 374.329 471.856ZM177.67 81.4661C173.322 80.9936 169.353 81.4661 165.951 82.9782C154.044 88.1758 149.508 105.375 152.626 132.592C161.132 205.737 223.692 329.44 292.018 408.35C332.087 454.656 367.241 477.337 386.047 469.021C397.955 463.823 402.491 446.623 399.372 419.407C390.867 346.262 328.306 222.558 259.981 143.649C227.189 105.753 197.61 83.6397 177.67 81.4661Z" fill="url(#paint7_linear_150_1737)"/>
<path d="M372.628 477.715C350.987 475.352 319.612 451.254 285.402 410.051C216.51 326.984 156.029 199.405 150.547 125.599C148.468 98.1932 154.233 80.9938 167.18 75.7016C188.065 67.2909 225.204 92.0505 266.596 141.948C335.489 225.015 395.97 352.594 401.451 426.4C403.53 453.806 397.766 471.005 384.913 476.297C381.228 477.715 377.164 478.187 372.628 477.715ZM179.371 75.6071C175.024 75.1346 171.054 75.6071 167.652 76.9302C155.367 81.8443 149.886 98.6657 151.965 125.41C157.446 198.933 217.833 326.228 286.536 409.106C327.55 458.531 364.123 483.196 384.346 474.974C396.632 470.06 402.113 453.239 400.034 426.495C394.553 352.972 334.166 225.677 265.462 142.798C231.536 101.879 200.539 77.8752 179.371 75.6071Z" fill="url(#paint8_linear_150_1737)"/>
<path d="M370.549 483.48C347.679 481.022 314.792 454.94 279.543 410.429C210.462 323.392 152.437 192.318 150.169 118.228C149.319 91.389 155.934 74.5676 169.259 69.748C191.75 61.5263 230.307 88.3649 272.455 141.475C341.537 228.512 399.561 359.587 401.829 433.677C402.68 460.515 396.065 477.337 382.74 482.251C379.054 483.574 374.99 483.952 370.549 483.48ZM181.45 69.8425C177.197 69.37 173.228 69.748 169.731 71.071C157.068 75.7016 150.736 92.0505 151.492 118.228C153.76 192.034 211.596 322.731 280.488 409.579C322.258 462.217 360.248 488.866 382.173 480.928C394.93 476.297 401.168 459.948 400.412 433.771C398.144 359.965 340.308 229.268 271.416 142.42C236.355 98.1932 203.941 72.2995 181.45 69.8425Z" fill="url(#paint9_linear_150_1737)"/>
<path d="M368.092 489.15C343.805 486.504 309.501 458.437 273.212 410.619C204.13 319.518 148.846 185.136 150.17 111.046C150.642 84.7744 158.108 68.5199 171.905 63.9838C196.098 56.0456 236.072 85.0579 278.882 141.476C347.963 232.576 403.153 366.959 401.924 441.048C401.451 467.32 393.986 483.575 380.188 488.111C376.503 489.245 372.439 489.623 368.092 489.15ZM183.907 64.1728C179.749 63.7003 175.78 64.0783 172.283 65.2124C159.147 69.5595 151.871 85.3414 151.493 111.046C150.264 184.852 205.359 318.857 274.251 409.768C316.683 465.714 356.09 494.442 379.621 486.788C392.757 482.441 399.939 466.659 400.412 440.954C401.641 367.148 346.546 233.143 277.653 142.232C241.648 94.6971 207.721 66.8189 183.907 64.1728Z" fill="url(#paint10_linear_150_1737)"/>
<path d="M365.257 494.631C339.458 491.891 303.736 461.555 266.502 410.24C197.515 315.265 145.444 177.67 150.453 103.769C152.154 78.0644 160.565 62.377 174.835 58.2189C200.823 50.7532 242.12 81.939 285.497 141.664C354.484 236.734 406.555 374.235 401.546 448.23C399.845 473.841 391.34 489.622 377.07 493.686C373.479 494.82 369.51 495.104 365.257 494.631ZM186.742 58.6914C182.678 58.2189 178.804 58.5024 175.307 59.5419C161.604 63.511 153.477 78.8204 151.871 103.769C146.956 177.481 198.933 314.604 267.636 409.39C310.635 468.643 351.365 499.64 376.786 492.363C390.489 488.394 398.522 473.085 400.223 448.136C405.137 374.424 353.161 237.301 284.457 142.515C247.412 91.4837 212.069 61.4319 186.742 58.6914Z" fill="url(#paint11_linear_150_1737)"/>
<path d="M362.139 500.018C334.733 497.088 297.404 464.58 259.414 409.674C190.806 310.635 142.231 170.11 151.115 96.4926C154.139 71.544 163.494 56.3291 178.331 52.738C206.21 45.8393 248.925 79.3877 292.585 142.421C361.194 241.459 409.768 381.984 400.885 455.602C397.86 480.55 388.505 495.765 373.668 499.356C370.077 500.207 366.202 500.49 362.139 500.018ZM189.861 53.3995C185.892 52.927 182.206 53.2105 178.615 54.061C164.44 57.5576 155.367 72.3 152.438 96.6816C143.649 170.015 192.129 309.974 260.548 408.823C303.925 471.384 346.073 504.743 373.384 497.939C387.56 494.442 396.632 479.7 399.561 455.318C408.35 381.984 359.871 241.932 291.451 143.082C253.744 88.6489 216.794 56.3291 189.861 53.3995Z" fill="url(#paint12_linear_150_1737)"/>
<path d="M358.547 505.12C329.346 502.002 290.505 467.13 251.854 408.539C183.907 305.531 139.207 162.266 152.154 89.3097C156.501 65.0226 166.896 50.5637 182.3 47.3506C212.257 41.208 256.295 77.1189 300.145 143.554C368.186 246.562 412.886 389.827 399.845 462.783C395.498 487.07 385.102 501.529 369.698 504.742C366.202 505.404 362.516 505.593 358.547 505.12ZM192.979 48.2012C189.293 47.8232 185.891 47.9177 182.584 48.5792C167.841 51.6033 157.729 65.7786 153.571 89.4042C140.624 162.077 185.23 304.87 253.082 407.688C295.986 472.612 340.497 509.278 369.509 503.325C384.252 500.301 394.364 486.125 398.522 462.5C411.468 389.733 366.863 247.034 299.011 144.216C260.926 86.6637 221.613 51.3198 192.979 48.2012Z" fill="url(#paint13_linear_150_1737)"/>
<path d="M355.145 510.13C324.149 506.822 282.757 468.738 244.011 407.028C176.819 300.051 136.278 154.328 153.666 82.1283C159.336 58.5972 170.771 44.7053 186.837 42.1537C218.495 36.9561 264.99 76.3636 308.083 145.067C375.274 252.044 415.816 397.766 398.427 469.966C392.757 493.497 381.323 507.389 365.257 509.941C362.044 510.413 358.642 510.508 355.145 510.13ZM196.854 43.2878C193.452 42.9097 190.144 43.0043 187.026 43.4768C171.622 46.0283 160.565 59.4477 154.989 82.4118C137.695 154.328 178.142 299.578 245.145 406.177C287.954 474.313 333.882 513.532 364.974 508.429C380.377 505.877 391.434 492.458 397.01 469.494C414.304 397.672 373.857 252.327 306.855 145.728C268.392 84.3963 227.284 46.5953 196.854 43.2878Z" fill="url(#paint14_linear_150_1737)"/>
<path d="M350.893 514.854C317.817 511.263 274.724 470.532 235.6 404.947C169.448 294.096 133.537 146.105 155.556 75.0394C162.644 52.2643 175.213 39.1285 191.845 37.1439C225.866 33.0803 273.495 75.2284 316.399 147.05C382.551 257.902 418.462 405.892 396.443 476.958C389.355 499.733 376.786 512.869 360.154 514.854C357.13 515.232 354.011 515.232 350.893 514.854ZM201.106 38.5615C197.988 38.278 195.058 38.278 192.129 38.5615C175.969 40.4515 163.872 53.3039 156.974 75.5119C135.049 146.294 170.96 293.718 236.923 404.286C279.449 475.635 326.7 517.5 360.059 513.531C376.219 511.641 388.316 498.788 395.214 476.58C417.139 405.798 381.228 258.28 315.265 147.806C276.33 82.5996 233.615 42.0581 201.106 38.5615Z" fill="url(#paint15_linear_150_1737)"/>
<path d="M346.262 519.391C311.013 515.61 266.124 471.95 226.811 402.491C161.982 287.86 131.08 137.884 157.919 68.1415C166.424 46.1225 180.127 33.7426 197.61 32.4196C233.899 29.7735 282.756 74.5677 325.093 149.508C389.922 264.14 420.824 414.115 393.986 483.858C385.481 505.877 371.778 518.257 354.295 519.58C351.743 519.769 349.097 519.674 346.262 519.391ZM205.642 34.0261C202.996 33.7426 200.35 33.6481 197.799 33.8371C180.883 35.0657 167.558 47.0675 159.336 68.614C132.687 137.979 163.494 287.482 228.134 401.735C270.188 476.108 318.573 520.714 354.295 518.068C371.211 516.839 384.536 504.743 392.757 483.291C419.407 413.926 388.599 264.423 323.959 150.17C284.93 81.0883 240.419 37.7117 205.642 34.0261Z" fill="url(#paint16_linear_150_1737)"/>
<path d="M341.348 523.643C303.641 519.58 256.957 472.99 217.644 399.467C154.422 281.15 129.001 129.474 160.848 61.3374C170.865 40.0744 185.797 28.5451 204.13 28.0726C242.876 27.033 292.774 74.7567 334.355 152.532C397.577 270.849 423.092 422.526 391.151 490.662C381.133 511.925 366.202 523.454 347.868 523.927C345.789 524.021 343.616 523.927 341.348 523.643ZM210.556 29.7736C208.383 29.5846 206.304 29.4901 204.13 29.4901C186.364 29.9626 171.81 41.2084 162.077 61.9989C130.324 129.757 155.84 280.867 218.873 398.9C260.17 476.203 309.595 523.643 347.774 522.604C365.54 522.131 380.094 510.885 389.828 490.095C421.58 422.337 396.065 271.227 333.032 153.194C294.097 80.1434 247.79 33.7427 210.556 29.7736Z" fill="url(#paint17_linear_150_1737)"/>
<path d="M336.15 527.612C295.703 523.265 247.129 473.462 208.099 395.876C146.673 273.873 127.016 120.874 164.25 54.7222C175.779 34.2151 192.128 23.5364 211.407 24.0089C252.704 24.9539 303.452 75.5127 343.899 156.029C405.326 278.031 424.982 431.031 387.748 497.183C376.219 517.69 359.87 528.368 340.592 527.896C339.174 527.896 337.662 527.801 336.15 527.612ZM215.754 25.7099C214.242 25.5209 212.824 25.4264 211.312 25.4264C192.601 24.9539 176.724 35.3492 165.384 55.3837C128.339 121.157 148.09 273.59 209.233 395.214C249.491 475.258 299.767 525.533 340.592 526.478C359.303 526.951 375.18 516.556 386.52 496.521C423.565 430.747 403.814 278.315 342.671 156.69C303.83 79.5763 255.728 30.057 215.754 25.7099Z" fill="url(#paint18_linear_150_1737)"/>
<path d="M330.575 531.298C287.198 526.667 236.639 473.462 198.082 391.812C138.829 266.313 125.41 112.274 168.22 48.3905C181.45 28.6395 199.216 19.0002 219.534 20.5122C220.196 20.5122 220.857 20.6067 221.519 20.7013C264.896 25.3319 315.454 78.5367 354.011 160.187C413.264 285.686 426.684 439.725 383.874 503.609C370.644 523.36 352.877 532.999 332.559 531.487C331.898 531.487 331.236 531.392 330.575 531.298ZM221.33 22.0243C220.668 21.9298 220.007 21.9298 219.44 21.8353C199.594 20.3232 182.3 29.7735 169.354 49.1465C126.828 112.652 140.247 266.124 199.311 391.245C237.679 472.517 287.765 525.344 330.669 529.975C331.331 530.069 331.992 530.069 332.559 530.164C352.405 531.676 369.699 522.226 382.646 502.947C425.172 439.441 411.752 285.97 352.688 160.848C314.32 79.5763 264.234 26.6549 221.33 22.0243Z" fill="url(#paint19_linear_150_1737)"/>
<path d="M324.716 534.7C324.243 534.7 323.865 534.606 323.393 534.511C277.086 528.557 225.11 472.045 187.593 386.993C130.797 258.091 124.087 103.391 172.661 42.0589C187.687 23.0639 206.966 14.5586 228.607 17.2992C274.913 23.2529 326.889 79.7653 364.407 164.818C421.203 293.719 427.912 448.419 379.338 509.751C364.596 528.368 345.79 537.063 324.716 534.7ZM227.189 18.6223C206.588 16.3542 188.16 24.8594 173.701 43.0039C125.504 103.958 132.309 258.091 188.916 386.52C226.15 471.1 277.748 527.329 323.582 533.188C323.96 533.283 324.432 533.283 324.81 533.377C345.412 535.551 363.84 527.14 378.204 508.995C426.4 448.041 419.691 294.002 363.084 165.479C325.85 80.8994 274.251 24.6704 228.418 18.8113C228.04 18.7168 227.567 18.7168 227.189 18.6223Z" fill="url(#paint20_linear_150_1737)"/>
<path d="M318.478 537.819C316.777 537.63 314.982 537.346 313.281 537.062C264.517 528.085 212.257 468.643 176.725 381.795C122.764 249.681 123.142 94.6967 177.67 36.2942C194.68 18.1497 215.754 10.7785 238.718 14.9366C287.387 23.9144 339.741 83.3564 375.18 170.204C429.141 302.319 428.762 457.303 374.235 515.705C358.547 532.526 339.363 540.087 318.478 537.819ZM233.331 15.5982C212.919 13.4246 194.113 20.7958 178.709 37.3337C124.465 95.3582 124.181 249.681 178.048 381.323C213.391 467.698 265.273 526.856 313.47 535.74C335.961 539.898 356.563 532.621 373.195 514.76C427.439 456.736 427.723 302.413 373.857 170.771C338.702 84.3959 286.725 25.1429 238.529 16.2597C236.828 15.9762 235.127 15.6927 233.331 15.5982Z" fill="url(#paint21_linear_150_1737)"/>
<path d="M312.052 540.559C308.744 540.181 305.342 539.614 301.94 538.764C251.003 526.478 198.649 464.012 165.479 375.747C114.542 240.514 122.575 85.7191 183.34 30.6242C202.524 13.2358 225.582 7.1876 249.964 13.1413C300.995 25.5211 353.349 87.9872 386.52 176.158C437.457 311.391 429.424 466.186 368.564 521.281C352.121 536.212 332.748 542.827 312.052 540.559ZM239.758 12.8577C219.44 10.6842 200.445 17.1104 184.285 31.7582C123.898 86.4751 116.054 240.609 166.707 375.369C199.783 463.162 251.665 525.25 302.224 537.441C326.227 543.205 348.813 537.252 367.619 520.241C428.006 465.524 435.85 311.391 385.197 176.63C352.121 88.8377 300.239 26.7496 249.68 14.5588C246.373 13.7083 243.065 13.1413 239.758 12.8577Z" fill="url(#paint22_linear_150_1737)"/>
<path d="M305.531 543.016C300.239 542.449 294.853 541.315 289.466 539.709C236.45 523.738 184.474 458.342 153.855 369.226C106.415 231.158 122.48 76.9301 189.766 25.5208C211.218 8.98286 236.45 4.44675 262.627 12.2904C315.643 28.3559 367.619 93.657 398.238 182.773C445.678 320.841 429.613 475.069 362.327 526.478C345.222 539.614 325.849 545.19 305.531 543.016ZM246.373 10.4004C226.433 8.22684 207.343 13.708 190.522 26.5603C123.709 77.6861 107.832 231.158 155.084 368.754C185.608 457.491 237.206 522.509 289.749 538.386C315.454 546.135 340.214 541.693 361.477 525.439C428.29 474.313 444.166 320.841 396.915 183.245C366.391 94.5076 314.793 29.4899 262.249 13.6135C256.863 12.0069 251.57 10.9674 246.373 10.4004Z" fill="url(#paint23_linear_150_1737)"/>
<path d="M298.822 545.095C291.167 544.245 283.323 542.449 275.574 539.614C220.857 519.674 169.637 451.538 141.759 361.95C98.0986 221.141 122.764 68.0472 196.665 20.6069C220.952 5.01404 248.546 2.27347 276.519 12.4797C331.236 32.4198 382.456 100.556 410.335 190.144C453.995 330.953 429.33 484.047 355.429 531.487C337.946 542.638 318.667 547.174 298.822 545.095ZM253.083 8.32163C233.521 6.24257 214.526 10.7787 197.326 21.741C123.898 68.8032 99.5161 221.236 142.987 361.477C170.676 450.688 221.613 518.446 275.952 538.291C303.547 548.403 330.764 545.568 354.673 530.259C428.101 483.196 452.483 330.764 409.012 190.522C381.322 101.312 330.386 33.5538 276.047 13.7083C268.297 10.9677 260.643 9.17215 253.083 8.32163Z" fill="url(#paint24_linear_150_1737)"/>
<path d="M292.017 546.796C281.528 545.662 270.849 542.827 260.17 538.197C203.28 513.721 154.327 444.734 129.19 353.822C89.7822 210.651 123.425 59.1639 204.225 16.1653C231.536 1.70643 261.777 0.855908 291.828 13.8027C348.719 38.2789 397.671 107.266 422.809 198.177C462.311 341.443 428.668 492.93 347.868 535.929C330.196 545.284 311.296 548.875 292.017 546.796ZM259.887 6.52605C240.892 4.447 222.275 8.03809 204.886 17.2993C124.559 60.0144 91.2943 210.84 130.607 353.444C155.556 443.978 204.225 512.587 260.737 536.874C290.411 549.631 320.274 548.781 347.112 534.511C427.439 491.796 460.704 340.97 421.391 198.366C396.443 107.927 347.774 39.3184 291.261 15.0313C280.772 10.4952 270.282 7.66008 259.887 6.52605Z" fill="url(#paint25_linear_150_1737)"/>
<path d="M285.213 548.214C271.322 546.702 257.241 542.544 243.443 535.646C185.608 506.822 138.168 435.568 116.432 345.223C81.4662 199.784 124.559 50.3757 212.541 12.1967C243.16 -1.12815 276.425 0.383885 308.65 16.4493C366.391 45.2725 413.926 116.433 435.661 206.872C470.627 352.311 427.534 501.719 339.552 539.898C322.069 547.458 303.736 550.199 285.213 548.214ZM266.691 5.10901C248.452 3.12446 230.308 5.86503 213.108 13.4252C125.693 51.3207 82.9782 199.973 117.755 344.845C139.396 434.906 186.647 505.688 244.105 534.417C275.952 550.294 308.745 551.711 339.08 538.67C426.4 500.774 469.21 352.122 434.433 207.25C412.697 117.189 365.446 46.3121 307.988 17.6778C294.286 10.7792 280.394 6.62105 266.691 5.10901Z" fill="url(#paint26_linear_150_1737)"/>
<path d="M278.504 549.348C260.548 547.458 242.593 541.41 225.204 531.487C166.991 498.222 121.346 425.078 103.202 335.678C73.15 188.254 126.26 41.5867 221.519 8.69984C255.918 -3.20746 292.396 0.950644 326.889 20.6071C385.008 53.7775 430.653 127.017 448.892 216.322C478.943 363.745 425.833 510.413 330.575 543.3C313.564 549.254 295.987 551.238 278.504 549.348ZM273.401 4.06922C256.107 2.17918 238.813 4.16373 221.991 9.92837C127.3 42.7207 74.662 188.632 104.525 335.395C122.669 424.416 168.03 497.277 225.866 530.259C259.981 549.726 296.081 553.79 330.102 542.072C424.699 509.374 477.337 363.367 447.474 216.605C429.424 127.584 384.063 54.817 326.133 21.7412C308.839 11.9129 291.073 5.95927 273.401 4.06922Z" fill="url(#paint27_linear_150_1737)"/>
<path d="M271.889 550.104C249.303 547.646 226.811 539.425 205.453 525.627C147.429 488.11 104.147 413.264 89.5935 325.377C64.9283 176.346 128.434 32.9863 231.158 5.67506C269.81 -4.6257 309.69 2.55648 346.546 26.3711C404.57 63.8886 447.852 138.734 462.406 226.622C487.071 375.652 423.565 519.012 320.746 546.323C304.586 550.576 288.238 551.805 271.889 550.104ZM279.921 3.3125C263.761 1.61146 247.507 2.83999 231.536 7.0926C129.473 34.1203 66.3459 176.819 90.9165 325.188C105.375 412.697 148.468 487.165 206.209 524.493C242.687 548.119 282.189 555.207 320.463 545C422.526 517.878 485.653 375.18 461.082 226.811C446.624 139.301 403.531 64.8336 345.79 27.5051C324.621 13.8023 302.413 5.67506 279.921 3.3125Z" fill="url(#paint28_linear_150_1737)"/>
<path d="M265.557 550.576C237.395 547.552 209.895 536.59 184.285 517.973C127.016 476.392 86.4745 400.318 75.6068 314.32C56.7063 163.967 131.174 24.4815 241.647 3.31297C285.024 -5.00324 328.59 5.67553 367.714 34.0263C424.888 75.6073 465.524 151.682 476.392 237.679C495.292 388.032 420.824 527.518 310.445 548.686C295.419 551.522 280.393 552.183 265.557 550.576ZM286.253 2.84046C271.605 1.23392 256.673 1.89544 241.931 4.73051C132.119 25.71 58.2183 164.534 77.0243 314.131C87.7976 399.751 128.245 475.447 185.135 516.839C223.976 545.001 267.163 555.585 310.162 547.363C419.879 526.384 493.874 387.465 474.974 237.868C464.201 152.343 423.848 76.5524 366.863 35.1603C341.442 16.7323 314.131 5.86454 286.253 2.84046Z" fill="url(#paint29_linear_150_1737)"/>
<path d="M259.698 550.765C225.11 547.079 191.845 532.715 161.793 508.333C105.186 462.311 68.5193 387.276 61.4316 302.412C48.6738 151.114 134.576 16.1646 252.799 1.51672C301.373 -4.43693 348.813 10.1164 390.206 43.6648C446.907 89.6875 483.479 164.722 490.662 249.586C503.419 400.884 417.517 535.928 299.2 550.481C285.875 552.088 272.739 552.182 259.698 550.765ZM292.112 2.55625C279.26 1.13871 266.124 1.23321 252.988 2.83975C135.427 17.3931 50.0913 151.776 62.7546 302.318C69.8423 386.803 106.32 461.46 162.644 507.294C203.658 540.559 250.814 555.017 299.011 549.158C416.572 534.699 501.907 400.317 489.244 249.775C482.156 165.195 445.678 90.538 389.355 44.7988C359.492 20.5117 326.511 6.33634 292.112 2.55625Z" fill="url(#paint30_linear_150_1737)"/>
<path d="M255.351 550.766C213.014 546.229 172.283 527.518 138.073 496.616C83.4507 447.191 50.1858 371.778 46.8782 289.655C40.7356 137.79 138.451 8.03809 264.801 0.477897C318.289 -2.73519 371.211 16.7323 413.926 55.3838C468.548 104.809 501.813 180.222 505.12 262.344C511.263 414.304 413.453 544.056 287.103 551.616C276.519 552.183 265.935 551.994 255.351 550.766ZM296.554 2.55695C286.064 1.42292 275.574 1.13941 264.99 1.80093C139.302 9.36112 42.0586 138.451 48.2013 289.655C51.5088 371.4 84.5847 446.435 139.018 495.576C181.45 533.944 233.993 553.317 287.103 550.104C412.697 542.544 509.94 413.453 503.797 262.25C500.49 180.505 467.414 105.47 413.075 56.3288C379.054 25.6155 338.513 7.09307 296.554 2.55695Z" fill="url(#paint31_linear_150_1737)"/>
<path d="M251.098 550.671C200.067 545.19 151.776 521.564 113.314 482.913C61.2429 430.559 31.6637 355.24 32.0417 276.142C32.8922 123.993 143.082 0.1946 277.653 0.100098C337.19 0.100098 394.458 24.5762 438.78 69.1814C490.851 121.536 520.525 196.854 520.052 275.953C519.107 428.007 408.917 551.9 274.44 551.9C266.597 551.9 258.753 551.522 251.098 550.671ZM300.807 2.65166C293.152 1.89564 285.403 1.42313 277.653 1.42313C143.838 1.51763 34.3097 124.749 33.3647 276.142C32.9867 354.862 62.3769 429.803 114.259 481.968C158.297 526.29 215.187 550.671 274.44 550.577C408.256 550.482 517.784 427.251 518.635 275.858C519.107 197.232 489.622 122.197 437.835 70.1264C399.467 31.5694 351.554 8.1328 300.807 2.65166Z" fill="url(#paint32_linear_150_1737)"/>
<path d="M247.79 550.482C183.623 543.583 125.221 512.019 82.0331 460.704C36.0105 405.987 12.8574 335.3 16.921 261.777C20.9846 188.254 51.6979 120.496 103.485 71.0709C155.367 21.7406 221.991 -3.39705 291.167 0.477551C360.343 4.25765 423.848 36.5775 469.966 91.2944C515.988 146.011 539.141 216.699 535.078 290.316C526.762 442.276 403.719 559.459 260.832 551.616C256.485 551.332 252.138 550.954 247.79 550.482ZM304.114 2.84011C299.861 2.3676 295.514 1.98959 291.167 1.80058C222.369 -1.97951 156.029 22.9691 104.525 72.0159C52.9264 121.157 22.3076 188.537 18.3385 261.777C14.3694 335.016 37.3335 405.42 83.1672 459.854C129.001 514.287 192.128 546.418 260.926 550.198C403.058 558.042 525.439 441.426 533.755 290.222C537.818 216.983 514.76 146.673 468.926 92.1449C426.022 41.1136 367.808 9.73879 304.114 2.84011Z" fill="url(#paint33_linear_150_1737)"/>
<path d="M246.467 550.387C95.169 534.133 -14.7373 397.766 1.6116 246.467C17.9605 95.169 154.327 -14.7373 305.626 1.6116C456.924 17.9605 566.736 154.327 550.387 305.626C534.133 456.924 397.766 566.736 246.467 550.387ZM305.437 3.02913C154.895 -13.2253 19.189 96.0195 3.02913 246.562C-13.2253 397.104 96.0195 532.81 246.562 549.064C397.104 565.319 532.81 455.979 549.064 305.437C565.319 154.895 455.979 19.189 305.437 3.02913Z" fill="url(#paint34_linear_150_1737)"/>
<defs>
<linearGradient id="paint0_linear_150_1737" x1="141.697" y1="261.544" x2="410.244" y2="290.473" gradientUnits="userSpaceOnUse">
<stop stop-color="#06A7E0"/>
<stop offset="1" stop-color="#683F99"/>
</linearGradient>
<linearGradient id="paint1_linear_150_1737" x1="140.031" y1="261.361" x2="411.899" y2="290.648" gradientUnits="userSpaceOnUse">
<stop stop-color="#06A7E0"/>
<stop offset="1" stop-color="#683F99"/>
</linearGradient>
<linearGradient id="paint2_linear_150_1737" x1="138.642" y1="261.212" x2="413.307" y2="290.8" gradientUnits="userSpaceOnUse">
<stop stop-color="#06A7E0"/>
<stop offset="1" stop-color="#683F99"/>
</linearGradient>
<linearGradient id="paint3_linear_150_1737" x1="137.41" y1="261.077" x2="414.501" y2="290.926" gradientUnits="userSpaceOnUse">
<stop stop-color="#06A7E0"/>
<stop offset="1" stop-color="#683F99"/>
</linearGradient>
<linearGradient id="paint4_linear_150_1737" x1="136.379" y1="260.969" x2="415.57" y2="291.045" gradientUnits="userSpaceOnUse">
<stop stop-color="#06A7E0"/>
<stop offset="1" stop-color="#683F99"/>
</linearGradient>
<linearGradient id="paint5_linear_150_1737" x1="135.502" y1="260.871" x2="416.444" y2="291.135" gradientUnits="userSpaceOnUse">
<stop stop-color="#06A7E0"/>
<stop offset="1" stop-color="#683F99"/>
</linearGradient>
<linearGradient id="paint6_linear_150_1737" x1="134.794" y1="260.801" x2="417.135" y2="291.216" gradientUnits="userSpaceOnUse">
<stop stop-color="#06A7E0"/>
<stop offset="1" stop-color="#683F99"/>
</linearGradient>
<linearGradient id="paint7_linear_150_1737" x1="134.243" y1="260.738" x2="417.677" y2="291.271" gradientUnits="userSpaceOnUse">
<stop stop-color="#06A7E0"/>
<stop offset="1" stop-color="#683F99"/>
</linearGradient>
<linearGradient id="paint8_linear_150_1737" x1="133.863" y1="260.69" x2="418.085" y2="291.307" gradientUnits="userSpaceOnUse">
<stop stop-color="#06A7E0"/>
<stop offset="1" stop-color="#683F99"/>
</linearGradient>
<linearGradient id="paint9_linear_150_1737" x1="133.598" y1="260.662" x2="418.349" y2="291.336" gradientUnits="userSpaceOnUse">
<stop stop-color="#06A7E0"/>
<stop offset="1" stop-color="#683F99"/>
</linearGradient>
<linearGradient id="paint10_linear_150_1737" x1="133.459" y1="260.655" x2="418.5" y2="291.361" gradientUnits="userSpaceOnUse">
<stop stop-color="#06A7E0"/>
<stop offset="1" stop-color="#683F99"/>
</linearGradient>
<linearGradient id="paint11_linear_150_1737" x1="133.388" y1="260.645" x2="418.552" y2="291.364" gradientUnits="userSpaceOnUse">
<stop stop-color="#06A7E0"/>
<stop offset="1" stop-color="#683F99"/>
</linearGradient>
<linearGradient id="paint12_linear_150_1737" x1="133.374" y1="260.65" x2="418.566" y2="291.372" gradientUnits="userSpaceOnUse">
<stop stop-color="#06A7E0"/>
<stop offset="1" stop-color="#683F99"/>
</linearGradient>
<linearGradient id="paint13_linear_150_1737" x1="133.37" y1="260.644" x2="418.569" y2="291.367" gradientUnits="userSpaceOnUse">
<stop stop-color="#06A7E0"/>
<stop offset="1" stop-color="#683F99"/>
</linearGradient>
<linearGradient id="paint14_linear_150_1737" x1="133.33" y1="260.646" x2="418.619" y2="291.379" gradientUnits="userSpaceOnUse">
<stop stop-color="#06A7E0"/>
<stop offset="1" stop-color="#683F99"/>
</linearGradient>
<linearGradient id="paint15_linear_150_1737" x1="133.182" y1="260.621" x2="418.741" y2="291.383" gradientUnits="userSpaceOnUse">
<stop stop-color="#06A7E0"/>
<stop offset="1" stop-color="#683F99"/>
</linearGradient>
<linearGradient id="paint16_linear_150_1737" x1="132.886" y1="260.585" x2="419.058" y2="291.413" gradientUnits="userSpaceOnUse">
<stop stop-color="#06A7E0"/>
<stop offset="1" stop-color="#683F99"/>
</linearGradient>
<linearGradient id="paint17_linear_150_1737" x1="132.338" y1="260.538" x2="419.601" y2="291.484" gradientUnits="userSpaceOnUse">
<stop stop-color="#06A7E0"/>
<stop offset="1" stop-color="#683F99"/>
</linearGradient>
<linearGradient id="paint18_linear_150_1737" x1="131.467" y1="260.446" x2="420.476" y2="291.579" gradientUnits="userSpaceOnUse">
<stop stop-color="#06A7E0"/>
<stop offset="1" stop-color="#683F99"/>
</linearGradient>
<linearGradient id="paint19_linear_150_1737" x1="130.161" y1="260.294" x2="421.769" y2="291.708" gradientUnits="userSpaceOnUse">
<stop stop-color="#06A7E0"/>
<stop offset="1" stop-color="#683F99"/>
</linearGradient>
<linearGradient id="paint20_linear_150_1737" x1="128.334" y1="260.103" x2="423.605" y2="291.911" gradientUnits="userSpaceOnUse">
<stop stop-color="#06A7E0"/>
<stop offset="1" stop-color="#683F99"/>
</linearGradient>
<linearGradient id="paint21_linear_150_1737" x1="125.858" y1="259.832" x2="426.066" y2="292.172" gradientUnits="userSpaceOnUse">
<stop stop-color="#06A7E0"/>
<stop offset="1" stop-color="#683F99"/>
</linearGradient>
<linearGradient id="paint22_linear_150_1737" x1="122.641" y1="259.48" x2="429.308" y2="292.516" gradientUnits="userSpaceOnUse">
<stop stop-color="#06A7E0"/>
<stop offset="1" stop-color="#683F99"/>
</linearGradient>
<linearGradient id="paint23_linear_150_1737" x1="118.558" y1="259.046" x2="433.391" y2="292.961" gradientUnits="userSpaceOnUse">
<stop stop-color="#06A7E0"/>
<stop offset="1" stop-color="#683F99"/>
</linearGradient>
<linearGradient id="paint24_linear_150_1737" x1="113.526" y1="258.507" x2="438.405" y2="293.505" gradientUnits="userSpaceOnUse">
<stop stop-color="#06A7E0"/>
<stop offset="1" stop-color="#683F99"/>
</linearGradient>
<linearGradient id="paint25_linear_150_1737" x1="107.47" y1="257.857" x2="444.466" y2="294.16" gradientUnits="userSpaceOnUse">
<stop stop-color="#06A7E0"/>
<stop offset="1" stop-color="#683F99"/>
</linearGradient>
<linearGradient id="paint26_linear_150_1737" x1="100.326" y1="257.083" x2="451.613" y2="294.925" gradientUnits="userSpaceOnUse">
<stop stop-color="#06A7E0"/>
<stop offset="1" stop-color="#683F99"/>
</linearGradient>
<linearGradient id="paint27_linear_150_1737" x1="92.0545" y1="256.193" x2="459.889" y2="295.818" gradientUnits="userSpaceOnUse">
<stop stop-color="#06A7E0"/>
<stop offset="1" stop-color="#683F99"/>
</linearGradient>
<linearGradient id="paint28_linear_150_1737" x1="82.6242" y1="255.18" x2="469.305" y2="296.835" gradientUnits="userSpaceOnUse">
<stop stop-color="#06A7E0"/>
<stop offset="1" stop-color="#683F99"/>
</linearGradient>
<linearGradient id="paint29_linear_150_1737" x1="72.0215" y1="254.032" x2="479.917" y2="297.972" gradientUnits="userSpaceOnUse">
<stop stop-color="#06A7E0"/>
<stop offset="1" stop-color="#683F99"/>
</linearGradient>
<linearGradient id="paint30_linear_150_1737" x1="60.2415" y1="252.77" x2="491.7" y2="299.249" gradientUnits="userSpaceOnUse">
<stop stop-color="#06A7E0"/>
<stop offset="1" stop-color="#683F99"/>
</linearGradient>
<linearGradient id="paint31_linear_150_1737" x1="47.2944" y1="251.377" x2="504.635" y2="300.644" gradientUnits="userSpaceOnUse">
<stop stop-color="#06A7E0"/>
<stop offset="1" stop-color="#683F99"/>
</linearGradient>
<linearGradient id="paint32_linear_150_1737" x1="33.1989" y1="249.854" x2="518.732" y2="302.158" gradientUnits="userSpaceOnUse">
<stop stop-color="#06A7E0"/>
<stop offset="1" stop-color="#683F99"/>
</linearGradient>
<linearGradient id="paint33_linear_150_1737" x1="17.9464" y1="248.21" x2="533.987" y2="303.8" gradientUnits="userSpaceOnUse">
<stop stop-color="#06A7E0"/>
<stop offset="1" stop-color="#683F99"/>
</linearGradient>
<linearGradient id="paint34_linear_150_1737" x1="1.58253" y1="246.447" x2="550.357" y2="305.564" gradientUnits="userSpaceOnUse">
<stop stop-color="#06A7E0"/>
<stop offset="1" stop-color="#683F99"/>
</linearGradient>
</defs>
</svg>
