<svg width="429" height="431" viewBox="0 0 429 431" fill="none" xmlns="http://www.w3.org/2000/svg">
<path d="M366.599 417.16C353.202 415.692 333.748 404.681 310.532 384.952C250.335 333.931 182.155 240.149 158.388 175.823C147.927 147.468 147.469 128.106 157.104 121.316C168.666 113.241 193.625 124.069 225.376 151.047C285.572 202.067 353.752 295.849 377.519 360.176C387.98 388.53 388.439 407.892 378.804 414.683C375.684 416.885 371.554 417.619 366.599 417.16ZM169.4 120.123C164.72 119.572 160.866 120.398 157.93 122.417C148.845 128.84 149.396 147.56 159.673 175.364C183.348 239.507 251.436 333.014 311.449 383.942C342.741 410.462 367.058 421.29 378.161 413.582C387.246 407.158 386.695 388.439 376.418 360.634C352.743 296.492 284.655 202.985 224.641 152.057C201.609 132.603 182.339 121.591 169.4 120.123Z" fill="url(#paint0_linear_150_1257)"/>
<path d="M366.966 423.033C352.835 421.473 332.096 409.177 307.504 387.337C246.114 332.83 178.209 235.102 156.186 169.491C143.982 133.153 149.854 120.031 156.828 115.351C169.308 107.092 195.369 119.297 228.496 148.661C289.885 203.168 357.79 300.896 379.813 366.507C392.018 402.753 386.145 415.967 379.171 420.647C375.959 422.758 371.83 423.584 366.966 423.033ZM169.033 114.25C164.445 113.791 160.591 114.433 157.563 116.452C148.203 122.692 148.111 141.32 157.379 169.033C179.402 234.46 247.123 332.004 308.33 386.328C340.905 415.325 366.507 427.346 378.345 419.546C387.705 413.306 387.796 394.678 378.528 366.966C356.505 301.539 288.784 203.994 227.578 149.67C203.261 128.014 182.797 115.718 169.033 114.25Z" fill="url(#paint1_linear_150_1257)"/>
<path d="M367.058 428.907C352.101 427.255 330.169 413.674 304.2 389.54C241.709 331.454 174.355 229.78 154.076 162.885C143.156 126.73 149.487 113.792 156.737 109.204C170.134 100.853 197.48 114.434 231.799 146.276C294.29 204.362 361.644 306.036 381.832 372.931C392.752 409.086 386.42 422.024 379.171 426.612C375.959 428.723 371.921 429.457 367.058 428.907ZM168.941 108.378C164.353 107.919 160.499 108.561 157.471 110.488C147.744 116.545 147.01 135.081 155.36 162.61C175.548 229.322 242.719 330.72 305.118 388.622C338.978 420.097 365.773 433.586 378.62 425.603C388.347 419.547 389.081 401.011 380.731 373.482C360.543 306.77 293.464 205.371 231.065 147.469C205.188 123.427 183.532 109.938 168.941 108.378Z" fill="url(#paint2_linear_150_1257)"/>
<path d="M366.874 434.871C351.091 433.127 327.875 418.17 300.53 391.65C236.938 329.894 170.409 224.366 152.24 156.37C144.624 127.923 146.276 109.57 157.012 103.33C171.327 94.8882 200.049 109.846 235.561 144.44C299.153 206.197 365.682 311.725 383.851 379.721C391.467 408.168 389.815 426.52 379.079 432.76C375.684 434.687 371.646 435.421 366.874 434.871ZM169.125 102.413C164.628 101.954 160.774 102.596 157.654 104.432C147.652 110.304 146.184 128.657 153.525 156.002C171.694 223.815 238.039 329.068 301.447 390.641C336.593 424.777 364.58 439.643 378.437 431.567C388.439 425.695 389.907 407.342 382.566 379.997C364.397 312.183 298.052 206.931 234.644 145.358C207.39 119.022 184.541 104.064 169.125 102.413Z" fill="url(#paint3_linear_150_1257)"/>
<path d="M366.415 440.743C349.714 438.908 325.214 422.483 296.492 393.394C231.982 328.058 166.555 218.677 150.496 149.579C143.981 121.407 146.367 103.33 157.379 97.182C172.795 88.7398 202.71 105.257 239.507 142.513C304.016 207.94 369.535 317.322 385.502 386.328C392.017 414.499 389.631 432.577 378.62 438.725C375.225 440.652 371.095 441.294 366.415 440.743ZM169.308 96.6314C164.903 96.1726 161.141 96.7232 158.021 98.4667C147.744 104.156 145.541 122.233 151.781 149.395C167.748 218.218 233.083 327.324 297.409 392.568C333.197 428.814 363.295 445.699 377.886 437.624C388.163 431.934 390.366 413.857 384.126 386.695C368.159 317.873 302.823 208.766 238.497 143.522C210.326 114.892 185.642 98.3749 169.308 96.6314Z" fill="url(#paint4_linear_150_1257)"/>
<path d="M365.681 446.617C347.971 444.69 322.186 426.704 292.271 394.954C226.935 325.765 162.793 212.621 149.12 142.697C143.706 114.801 146.826 96.9992 158.205 91.1263C174.814 82.5923 206.013 100.761 243.911 140.862C309.247 210.051 373.389 323.196 387.062 393.119C392.476 421.015 389.356 438.817 377.978 444.69C374.399 446.525 370.361 447.168 365.681 446.617ZM170.042 90.7593C165.729 90.3005 161.875 90.851 158.755 92.5028C147.927 98.1003 145.082 115.352 150.405 142.605C163.986 212.254 228.036 325.123 293.188 394.128C330.077 433.22 361.46 451.664 377.243 443.589C388.072 438.083 390.916 420.74 385.594 393.486C372.013 323.838 307.962 210.969 242.81 141.963C213.354 110.672 187.385 92.5945 170.042 90.7593Z" fill="url(#paint5_linear_150_1257)"/>
<path d="M364.58 452.49C345.86 450.471 318.79 430.926 287.591 396.331C221.613 323.379 158.939 206.473 147.927 135.907C143.614 108.378 147.56 90.851 159.306 85.2535C177.108 76.7195 209.684 96.5404 248.591 139.669C314.477 212.621 377.152 329.435 388.163 400.093C392.476 427.622 388.53 445.149 376.784 450.746C373.297 452.398 369.168 452.949 364.58 452.49ZM171.143 84.8864C166.83 84.4276 163.068 84.9782 159.764 86.4464C148.569 91.7687 144.899 108.745 149.12 135.631C160.131 206.014 222.714 322.553 288.508 395.413C326.406 437.349 359.258 457.629 376.234 449.462C387.429 444.139 391.1 427.072 386.878 400.277C375.867 329.894 313.284 213.355 247.49 140.495C216.749 106.634 189.404 86.9052 171.143 84.8864Z" fill="url(#paint6_linear_150_1257)"/>
<path d="M363.479 458.179C343.658 456.068 314.569 434.504 282.452 397.431C215.924 320.626 155.085 200.232 146.826 128.932C143.706 101.862 148.386 84.7024 160.499 79.3801C179.402 71.0296 214.089 93.2363 253.363 138.659C319.983 215.465 380.822 335.858 389.081 407.067C392.201 434.137 387.521 451.296 375.408 456.619C372.013 458.179 367.976 458.637 363.479 458.179ZM172.52 79.1048C168.299 78.646 164.445 79.1048 161.141 80.573C149.579 85.62 145.174 102.321 148.203 128.749C156.461 199.773 217.209 319.891 283.553 396.514C322.461 441.478 356.597 463.501 374.858 455.426C386.42 450.379 390.825 433.678 387.796 407.25C379.538 336.225 318.79 216.107 252.446 139.485C220.604 102.688 191.882 81.2153 172.52 79.1048Z" fill="url(#paint7_linear_150_1257)"/>
<path d="M361.827 463.868C340.813 461.574 310.348 438.174 277.13 398.165C210.234 317.506 151.506 193.625 146.184 121.958C144.165 95.3469 149.762 78.646 162.334 73.5073C182.614 65.3403 218.677 89.3823 258.869 137.833C325.764 218.493 384.493 342.374 389.815 414.041C391.834 440.652 386.236 457.353 373.756 462.492C370.178 463.868 366.232 464.327 361.827 463.868ZM174.171 73.4155C169.95 72.9567 166.096 73.4155 162.793 74.7002C150.864 79.4719 145.541 95.8057 147.56 121.775C152.882 193.166 211.519 316.772 278.231 397.248C318.056 445.24 353.568 469.19 373.206 461.207C385.135 456.435 390.457 440.101 388.438 414.132C383.116 342.741 324.48 219.135 257.768 138.659C224.825 98.9257 194.726 75.6178 174.171 73.4155Z" fill="url(#paint8_linear_150_1257)"/>
<path d="M359.809 469.466C337.602 467.08 305.668 441.753 271.441 398.533C204.362 314.019 148.019 186.743 145.817 114.801C144.991 88.7402 151.414 72.4064 164.353 67.7264C186.193 59.743 223.632 85.8038 264.558 137.375C331.637 221.889 387.98 349.164 390.182 421.107C391.008 447.167 384.585 463.501 371.646 468.273C368.067 469.558 364.121 469.925 359.809 469.466ZM176.19 67.8182C172.061 67.3594 168.207 67.7264 164.812 69.0111C152.516 73.5075 146.367 89.3826 147.101 114.801C149.304 186.468 205.463 313.377 272.358 397.707C312.918 448.819 349.806 474.696 371.095 466.988C383.484 462.492 389.54 446.617 388.806 421.198C386.604 349.531 330.444 222.623 263.549 138.292C229.505 95.3472 198.03 70.2041 176.19 67.8182Z" fill="url(#paint9_linear_150_1257)"/>
<path d="M357.423 474.972C333.839 472.402 300.529 445.149 265.292 398.716C198.213 310.257 144.532 179.769 145.817 107.827C146.275 82.3169 153.525 66.5336 166.922 62.1289C190.413 54.4208 229.229 82.5921 270.798 137.375C337.877 225.835 391.467 356.322 390.274 428.264C389.815 453.774 382.566 469.558 369.168 473.962C365.589 475.063 361.644 475.43 357.423 474.972ZM178.576 62.3125C174.538 61.8537 170.684 62.2207 167.289 63.3219C154.534 67.543 147.468 82.8674 147.101 107.827C145.908 179.494 199.406 309.614 266.302 397.891C307.503 452.214 345.769 480.11 368.618 472.678C381.373 468.456 388.347 453.132 388.806 428.172C389.999 356.505 336.501 226.385 269.605 138.109C234.643 91.952 201.7 64.8818 178.576 62.3125Z" fill="url(#paint10_linear_150_1257)"/>
<path d="M354.67 480.294C329.618 477.633 294.932 448.177 258.777 398.349C191.79 306.127 141.229 172.52 146.092 100.761C147.744 75.8017 155.911 60.569 169.767 56.5314C195.002 49.2821 235.102 79.564 277.222 137.558C344.209 229.872 394.77 363.388 389.907 435.238C388.255 460.106 379.996 475.431 366.14 479.376C362.653 480.478 358.799 480.753 354.67 480.294ZM181.329 56.9902C177.383 56.5314 173.621 56.8067 170.226 57.8161C156.92 61.6702 149.028 76.5358 147.468 100.761C142.697 172.337 193.167 305.485 259.878 397.524C301.631 455.059 341.181 485.157 365.865 478.092C379.171 474.238 386.97 459.372 388.622 435.146C393.394 363.571 342.924 230.423 276.212 138.384C240.241 88.8321 205.922 59.6514 181.329 56.9902Z" fill="url(#paint11_linear_150_1257)"/>
<path d="M351.642 485.525C325.03 482.68 288.784 451.113 251.895 397.799C185.275 301.631 138.109 165.179 146.734 93.6956C149.671 69.4701 158.755 54.6963 173.162 51.2093C200.232 44.5105 241.709 77.0865 284.104 138.293C350.724 234.46 397.89 370.912 389.265 442.396C386.328 466.621 377.244 481.395 362.837 484.882C359.35 485.708 355.588 485.983 351.642 485.525ZM184.357 51.8516C180.503 51.3928 176.925 51.6681 173.438 52.494C159.673 55.8892 150.864 70.2043 148.019 93.8792C139.485 165.087 186.56 300.989 252.996 396.973C295.116 457.72 336.042 490.113 362.562 483.506C376.326 480.111 385.135 465.796 387.98 442.121C396.514 370.912 349.439 234.919 283.003 138.935C246.389 86.0793 210.51 54.6963 184.357 51.8516Z" fill="url(#paint12_linear_150_1257)"/>
<path d="M348.154 490.479C319.8 487.451 282.085 453.59 244.554 396.697C178.576 296.675 135.172 157.562 147.744 86.7211C151.965 63.1379 162.059 49.0982 177.016 45.9782C206.105 40.0136 248.867 74.8836 291.445 139.393C357.514 239.415 400.918 378.528 388.255 449.369C384.034 472.952 373.94 486.992 358.983 490.112C355.587 490.755 352.009 490.938 348.154 490.479ZM187.385 46.8041C183.807 46.437 180.503 46.5288 177.291 47.1712C162.976 50.1076 153.158 63.8721 149.12 86.8129C136.548 157.379 179.861 296.033 245.747 395.871C287.407 458.913 330.628 494.517 358.799 488.736C373.114 485.799 382.933 472.035 386.97 449.094C399.542 378.436 356.23 239.874 290.344 140.036C253.363 84.1517 215.19 49.8323 187.385 46.8041Z" fill="url(#paint13_linear_150_1257)"/>
<path d="M344.851 495.343C314.753 492.132 274.56 455.151 236.937 395.23C171.694 291.354 132.327 149.855 149.212 79.7476C154.718 56.8986 165.821 43.4094 181.421 40.9318C212.161 35.8848 257.309 74.1501 299.153 140.862C364.397 244.738 403.763 386.237 386.879 456.344C381.373 479.193 370.269 492.682 354.67 495.16C351.55 495.619 348.246 495.71 344.851 495.343ZM191.148 42.033C187.844 41.6659 184.632 41.7577 181.604 42.2165C166.647 44.6941 155.911 57.7245 150.496 80.0229C133.704 149.855 172.978 290.895 238.039 394.404C279.607 460.565 324.204 498.647 354.394 493.692C369.352 491.214 380.088 478.184 385.502 455.885C402.295 386.145 363.02 245.013 297.96 141.504C260.612 81.9499 220.695 45.2447 191.148 42.033Z" fill="url(#paint14_linear_150_1257)"/>
<path d="M340.722 499.93C308.605 496.443 266.761 456.893 228.771 393.21C164.537 285.572 129.667 141.87 151.047 72.8643C157.93 50.7494 170.134 37.9943 186.284 36.0673C219.319 32.1215 265.568 73.0479 307.228 142.788C371.463 250.426 406.333 394.127 384.952 463.133C378.07 485.248 365.865 498.003 349.715 499.93C346.778 500.297 343.75 500.297 340.722 499.93ZM195.277 37.4437C192.249 37.1684 189.404 37.1684 186.56 37.4437C170.868 39.279 159.123 51.7588 152.424 73.3232C131.135 142.054 166.005 285.204 230.056 392.567C271.349 461.849 317.231 502.5 349.623 498.646C365.315 496.81 377.06 484.331 383.759 462.766C405.048 394.036 370.178 250.793 306.127 143.522C268.321 80.2054 226.844 40.839 195.277 37.4437Z" fill="url(#paint15_linear_150_1257)"/>
<path d="M336.225 504.336C301.998 500.665 258.41 458.27 220.237 390.825C157.287 279.516 127.281 133.887 153.341 66.1662C161.6 44.7854 174.906 32.7644 191.882 31.4797C227.119 28.9104 274.56 72.4061 315.67 145.174C378.62 256.483 408.627 402.111 382.566 469.833C374.307 491.213 361.001 503.234 344.025 504.519C341.548 504.703 338.978 504.611 336.225 504.336ZM199.682 33.0397C197.112 32.7644 194.543 32.6727 192.065 32.8562C175.64 34.0491 162.701 45.703 154.718 66.625C128.84 133.979 158.755 279.149 221.521 390.09C262.356 462.308 309.339 505.62 344.025 503.051C360.451 501.858 373.389 490.112 381.373 469.282C407.25 401.928 377.335 256.758 314.569 145.817C276.671 78.7378 233.451 36.6185 199.682 33.0397Z" fill="url(#paint16_linear_150_1257)"/>
<path d="M331.453 508.465C294.84 504.519 249.509 459.28 211.335 387.888C149.946 273.001 125.261 125.721 156.186 59.5595C165.913 38.9128 180.411 27.7177 198.213 27.2588C235.836 26.2494 284.287 72.5899 324.663 148.111C386.053 262.999 410.829 410.278 379.813 476.44C370.086 497.086 355.587 508.282 337.785 508.74C335.766 508.832 333.656 508.74 331.453 508.465ZM204.453 28.9106C202.343 28.727 200.324 28.6353 198.213 28.6353C180.962 29.0941 166.83 40.0139 157.379 60.2018C126.546 125.996 151.322 272.725 212.528 387.338C252.629 462.4 300.621 508.465 337.693 507.456C354.945 506.997 369.076 496.077 378.528 475.889C409.36 410.095 384.584 263.366 323.378 148.753C285.572 77.8204 240.608 32.7646 204.453 28.9106Z" fill="url(#paint17_linear_150_1257)"/>
<path d="M326.407 512.319C287.132 508.098 239.966 459.739 202.067 384.401C142.421 265.935 123.335 117.37 159.489 53.1358C170.684 33.2232 186.559 22.8539 205.279 23.3127C245.38 24.2304 294.657 73.3237 333.931 151.506C393.577 269.972 412.664 418.537 376.509 482.771C365.314 502.684 349.439 513.053 330.719 512.594C329.343 512.594 327.875 512.503 326.407 512.319ZM209.5 24.9645C208.032 24.781 206.656 24.6892 205.187 24.6892C187.018 24.2304 171.602 34.3243 160.59 53.7781C124.619 117.645 143.798 265.659 203.169 383.759C242.26 461.482 291.078 510.3 330.719 511.218C348.889 511.677 364.305 501.583 375.316 482.129C411.288 418.262 392.109 270.248 332.738 152.148C295.024 77.2695 248.316 29.1856 209.5 24.9645Z" fill="url(#paint18_linear_150_1257)"/>
<path d="M320.993 515.898C278.874 511.401 229.78 459.739 192.341 380.455C134.805 258.594 121.775 109.02 163.344 46.9878C176.19 27.8093 193.442 18.4494 213.171 19.9176C213.813 19.9176 214.456 20.0094 215.098 20.1012C257.217 24.5976 306.311 76.2603 343.75 155.544C401.286 277.405 414.316 426.979 372.747 489.011C359.9 508.19 342.649 517.55 322.92 516.081C322.278 516.081 321.635 515.99 320.993 515.898ZM214.915 21.3858C214.272 21.2941 213.63 21.2941 213.079 21.2023C193.809 19.7341 177.016 28.9104 164.445 47.7219C123.151 109.387 136.182 258.41 193.534 379.905C230.79 458.821 279.424 510.117 321.085 514.613C321.727 514.705 322.369 514.705 322.92 514.797C342.19 516.265 358.983 507.089 371.554 488.369C412.848 426.704 399.817 277.681 342.465 156.186C305.21 77.2696 256.575 25.8822 214.915 21.3858Z" fill="url(#paint19_linear_150_1257)"/>
<path d="M315.303 519.201C314.845 519.201 314.478 519.11 314.019 519.018C269.055 513.237 218.585 458.362 182.155 375.776C127.005 250.611 120.49 100.394 167.656 40.8397C182.247 22.3953 200.966 14.1366 221.98 16.7978C266.944 22.5789 317.414 77.4533 353.844 160.04C408.994 285.205 415.509 435.422 368.343 494.976C354.028 513.053 335.767 521.496 315.303 519.201ZM220.604 18.0825C200.599 15.8801 182.706 24.1388 168.666 41.7574C121.867 100.945 128.474 250.611 183.44 375.317C219.594 457.445 269.697 512.044 314.202 517.733C314.569 517.825 315.028 517.825 315.395 517.917C335.4 520.027 353.293 511.86 367.241 494.242C414.041 435.055 407.526 285.481 352.559 160.683C316.405 78.5544 266.302 23.9553 221.797 18.266C221.43 18.1742 220.971 18.1742 220.604 18.0825Z" fill="url(#paint20_linear_150_1257)"/>
<path d="M309.247 522.23C307.595 522.046 305.852 521.771 304.2 521.496C256.85 512.778 206.105 455.059 171.602 370.729C119.205 242.444 119.572 91.9519 172.52 35.2422C189.037 17.6237 209.5 10.4661 231.799 14.5037C279.057 23.2212 329.893 80.9403 364.305 165.271C416.701 293.556 416.334 444.047 363.387 500.757C348.154 517.091 329.526 524.432 309.247 522.23ZM226.568 15.146C206.747 13.0355 188.486 20.193 173.529 36.2516C120.857 92.5942 120.582 242.444 172.887 370.27C207.206 454.141 257.584 511.585 304.383 520.211C326.223 524.248 346.227 517.183 362.378 499.839C415.05 443.497 415.325 293.647 363.02 165.821C328.884 81.9497 278.414 24.4141 231.615 15.7884C229.963 15.5131 228.312 15.2378 226.568 15.146Z" fill="url(#paint21_linear_150_1257)"/>
<path d="M303.007 524.891C299.795 524.524 296.492 523.973 293.189 523.147C243.728 511.218 192.891 450.563 160.682 364.856C111.222 233.543 119.022 83.2345 178.026 29.7365C196.654 12.8521 219.044 6.97927 242.719 12.7603C292.271 24.7813 343.108 85.4368 375.317 171.052C424.777 302.365 416.977 452.673 357.882 506.171C341.915 520.67 323.103 527.093 303.007 524.891ZM232.808 12.4851C213.079 10.3745 194.635 16.6144 178.943 30.8377C120.307 83.9686 112.69 233.634 161.875 364.489C193.992 449.737 244.37 510.025 293.464 521.863C316.772 527.46 338.703 521.679 356.964 505.162C415.601 452.031 423.217 302.365 374.032 171.511C341.915 86.2627 291.537 25.9742 242.443 14.1368C239.232 13.3109 236.02 12.7603 232.808 12.4851Z" fill="url(#paint22_linear_150_1257)"/>
<path d="M296.675 527.277C291.537 526.726 286.306 525.625 281.076 524.065C229.597 508.557 179.127 445.057 149.395 358.524C103.33 224.458 118.93 74.7003 184.266 24.7811C205.096 8.72254 229.597 4.31791 255.015 11.9343C306.494 27.534 356.964 90.9424 386.695 177.475C432.76 311.541 417.161 461.299 351.825 511.218C335.216 523.973 316.405 529.387 296.675 527.277ZM239.232 10.099C219.87 7.98844 201.333 13.3107 185 25.7905C120.123 75.4344 104.707 224.458 150.588 358.065C180.228 444.231 230.331 507.364 281.351 522.78C306.311 530.305 330.353 525.992 350.999 510.209C415.876 460.565 431.292 311.541 385.411 177.934C355.771 91.7683 305.668 28.6352 254.648 13.2189C249.417 11.659 244.279 10.6496 239.232 10.099Z" fill="url(#paint23_linear_150_1257)"/>
<path d="M290.16 529.296C282.728 528.47 275.111 526.726 267.587 523.973C214.456 504.611 164.72 438.45 137.65 351.458C95.2553 214.731 119.206 66.0749 190.964 20.0097C214.548 4.86878 241.342 2.20764 268.504 12.1181C321.635 31.4801 371.371 97.6414 398.441 184.633C440.836 321.36 416.885 470.017 345.127 516.082C328.15 526.91 309.431 531.314 290.16 529.296ZM245.747 8.08049C226.752 6.0617 208.308 10.4663 191.607 21.1109C120.307 66.809 96.6318 214.823 138.843 351C165.729 437.624 215.19 503.418 267.954 522.689C294.749 532.507 321.176 529.754 344.392 514.889C415.692 469.191 439.367 321.177 397.156 185C370.27 98.3755 320.809 32.5813 268.045 13.311C260.521 10.6499 253.088 8.90636 245.747 8.08049Z" fill="url(#paint24_linear_150_1257)"/>
<path d="M283.553 530.947C273.367 529.846 262.998 527.093 252.629 522.597C197.387 498.83 149.854 431.843 125.445 343.567C87.1798 204.545 119.848 57.449 198.305 15.6968C224.825 1.657 254.189 0.831131 283.37 13.4027C338.611 37.1694 386.144 104.157 410.553 192.433C448.91 331.546 416.243 478.642 337.785 520.394C320.625 529.479 302.273 532.966 283.553 530.947ZM252.354 6.33692C233.909 4.31813 215.832 7.80513 198.947 16.7979C120.949 58.2749 88.648 204.729 126.822 343.2C151.047 431.109 198.305 497.729 253.179 521.312C281.993 533.7 310.99 532.874 337.051 519.018C415.05 477.541 447.35 331.087 409.177 192.616C384.952 104.799 337.693 38.1788 282.819 14.5956C272.633 10.191 262.448 7.43808 252.354 6.33692Z" fill="url(#paint25_linear_150_1257)"/>
<path d="M276.946 532.324C263.457 530.856 249.784 526.818 236.387 520.119C180.228 492.132 134.163 422.942 113.057 335.216C79.1049 193.993 120.949 48.9152 206.38 11.8429C236.112 -1.09572 268.412 0.372491 299.704 15.9722C355.771 43.96 401.928 113.058 423.033 200.875C456.986 342.099 415.142 487.176 329.71 524.249C312.734 531.59 294.932 534.251 276.946 532.324ZM258.961 4.96065C241.25 3.03362 223.632 5.69476 206.931 13.0358C122.05 49.8329 80.5731 194.176 114.342 334.849C135.356 422.3 181.237 491.03 237.029 518.926C267.954 534.343 299.795 535.719 329.251 523.056C414.041 486.259 455.609 341.915 421.84 201.242C400.735 113.792 354.853 44.9694 299.061 17.1652C285.756 10.4664 272.266 6.42886 258.961 4.96065Z" fill="url(#paint26_linear_150_1257)"/>
<path d="M270.431 533.425C252.996 531.59 235.561 525.717 218.676 516.082C162.15 483.781 117.829 412.756 100.21 325.948C71.0294 182.798 122.6 40.3811 215.098 8.44751C248.499 -3.11466 283.92 0.922925 317.414 20.0097C373.848 52.2186 418.17 123.335 435.88 210.051C465.061 353.202 413.49 495.618 320.992 527.552C304.475 533.333 287.407 535.26 270.431 533.425ZM265.476 3.95111C248.683 2.11585 231.89 4.04287 215.556 9.64043C123.61 41.4823 72.4976 183.165 101.495 325.673C119.113 412.114 163.16 482.863 219.319 514.889C252.445 533.792 287.499 537.738 320.534 526.359C412.389 494.609 463.501 352.835 434.504 210.327C416.977 123.886 372.93 53.228 316.68 21.1108C299.887 11.5675 282.635 5.78638 265.476 3.95111Z" fill="url(#paint27_linear_150_1257)"/>
<path d="M264.008 534.159C242.076 531.773 220.236 523.789 199.498 510.392C143.155 473.962 101.128 401.285 86.9962 315.946C63.046 171.235 124.711 32.0303 224.458 5.51069C261.989 -4.4915 300.713 2.4825 336.5 25.6068C392.843 62.0368 434.871 134.713 449.002 220.053C472.952 364.764 411.287 503.969 311.449 530.488C295.758 534.617 279.883 535.81 264.008 534.159ZM271.807 3.21661C256.116 1.56487 240.333 2.75779 224.825 6.88714C125.72 33.1314 64.4225 171.694 88.2809 315.762C102.321 400.735 144.165 473.044 200.232 509.291C235.653 532.232 274.01 539.114 311.174 529.203C410.278 502.867 471.576 364.305 447.717 220.237C433.678 135.264 391.834 62.9545 335.766 26.708C315.211 13.4023 293.647 5.51069 271.807 3.21661Z" fill="url(#paint28_linear_150_1257)"/>
<path d="M257.859 534.618C230.514 531.681 203.811 521.037 178.943 502.959C123.335 462.584 83.9681 388.714 73.4153 305.21C55.0627 159.214 127.372 23.7718 234.643 3.21688C276.763 -4.85829 319.065 5.51096 357.055 33.0399C412.572 73.4157 452.03 147.285 462.583 230.79C480.936 376.785 408.626 512.227 301.447 532.782C286.857 535.535 272.266 536.178 257.859 534.618ZM277.956 2.75806C263.732 1.19808 249.234 1.84043 234.919 4.59332C128.29 24.9648 56.5309 159.765 74.7918 305.026C85.2528 388.164 124.527 461.666 179.769 501.858C217.484 529.204 259.419 539.481 301.172 531.498C407.709 511.126 479.559 376.234 461.207 230.973C450.746 147.927 411.563 74.3334 356.23 34.1411C331.545 16.2473 305.026 5.69448 277.956 2.75806Z" fill="url(#paint29_linear_150_1257)"/>
<path d="M252.17 534.801C218.585 531.222 186.284 517.274 157.104 493.599C102.137 448.91 66.5333 376.05 59.6511 293.647C47.263 146.734 130.676 15.6961 245.472 1.47285C292.638 -4.30824 338.703 9.8233 378.895 42.3992C433.953 87.0879 469.466 159.948 476.44 242.351C488.828 389.264 405.415 520.394 290.527 534.525C277.589 536.085 264.834 536.177 252.17 534.801ZM283.645 2.48224C271.165 1.10579 258.41 1.19756 245.655 2.75753C131.502 16.8891 48.6395 147.376 60.9358 293.555C67.818 375.592 103.239 448.085 157.929 492.59C197.755 524.89 243.545 538.93 290.344 533.241C404.497 519.201 487.359 388.714 475.063 242.535C468.181 160.407 432.76 87.9138 378.069 43.5004C349.072 19.9173 317.047 6.15277 283.645 2.48224Z" fill="url(#paint30_linear_150_1257)"/>
<path d="M247.949 534.801C206.839 530.397 167.289 512.227 134.071 482.221C81.0318 434.229 48.7311 361.002 45.5194 281.259C39.5548 133.796 134.438 7.80506 257.125 0.463998C309.063 -2.65595 360.451 16.2473 401.928 53.7784C454.967 101.771 487.268 174.998 490.479 254.74C496.444 402.295 401.469 528.286 278.782 535.627C268.504 536.178 258.227 535.994 247.949 534.801ZM287.958 2.48279C277.772 1.38163 267.586 1.10634 257.309 1.74868C135.264 9.08974 40.8395 134.438 46.8041 281.259C50.0158 360.635 82.133 433.495 134.989 481.212C176.19 518.467 227.211 537.279 278.782 534.159C400.735 526.818 495.159 401.469 489.195 254.648C485.983 175.273 453.866 102.413 401.102 54.6961C368.067 24.873 328.701 6.88742 287.958 2.48279Z" fill="url(#paint31_linear_150_1257)"/>
<path d="M243.82 534.709C194.268 529.387 147.377 506.446 110.029 468.915C59.4677 418.078 30.7458 344.943 31.1129 268.137C31.9387 120.399 138.935 0.188687 269.605 0.0969238C327.416 0.0969238 383.025 23.8636 426.062 67.1758C476.623 118.013 505.437 191.148 504.978 267.954C504.06 415.601 397.065 535.902 266.486 535.902C258.869 535.902 251.253 535.535 243.82 534.709ZM292.087 2.57453C284.655 1.84043 277.13 1.38161 269.605 1.38161C139.669 1.47337 33.3152 121.133 32.3975 268.137C32.0305 344.576 60.5688 417.344 110.947 467.998C153.709 511.035 208.95 534.709 266.486 534.618C396.422 534.526 502.776 414.867 503.602 267.862C504.06 191.515 475.43 118.655 425.144 68.0935C387.888 30.6541 341.364 7.8968 292.087 2.57453Z" fill="url(#paint32_linear_150_1257)"/>
<path d="M240.608 534.526C178.301 527.827 121.591 497.178 79.6553 447.351C34.9666 394.22 12.4846 325.581 16.4304 254.189C20.3763 182.797 50.1993 117.003 100.486 69.011C150.864 21.1106 215.557 -3.29841 282.727 0.463879C349.898 4.13441 411.563 35.5174 456.343 88.6483C501.032 141.779 523.514 210.418 519.568 281.902C511.493 429.457 392.017 543.243 253.271 535.627C249.05 535.352 244.829 534.985 240.608 534.526ZM295.299 2.75796C291.17 2.29914 286.948 1.93209 282.727 1.74856C215.924 -1.92196 151.506 22.3035 101.495 69.9286C51.3922 117.646 21.6609 183.073 17.8069 254.189C13.9528 325.306 36.2513 393.669 80.7565 446.525C125.262 499.381 186.559 530.58 253.363 534.251C391.375 541.867 510.208 428.631 518.284 281.81C522.229 210.693 499.839 142.422 455.334 89.4742C413.673 39.9221 357.147 9.45668 295.299 2.75796Z" fill="url(#paint33_linear_150_1257)"/>
<path d="M239.323 534.434C92.4104 518.651 -14.3102 386.236 1.56488 239.323C17.4399 92.4104 149.854 -14.3102 296.767 1.56488C443.68 17.4399 550.309 149.854 534.434 296.767C518.651 443.68 386.236 550.309 239.323 534.434ZM296.584 2.94133C150.405 -12.8419 18.6328 93.2363 2.94133 239.415C-12.8419 385.594 93.2363 517.366 239.415 533.149C385.594 548.932 517.366 442.762 533.149 296.584C548.932 150.405 442.762 18.6328 296.584 2.94133Z" fill="url(#paint34_linear_150_1257)"/>
<defs>
<linearGradient id="paint0_linear_150_1257" x1="137.59" y1="253.963" x2="398.354" y2="282.053" gradientUnits="userSpaceOnUse">
<stop stop-color="#06A7E0"/>
<stop offset="1" stop-color="#683F99"/>
</linearGradient>
<linearGradient id="paint1_linear_150_1257" x1="135.972" y1="253.786" x2="399.96" y2="282.224" gradientUnits="userSpaceOnUse">
<stop stop-color="#06A7E0"/>
<stop offset="1" stop-color="#683F99"/>
</linearGradient>
<linearGradient id="paint2_linear_150_1257" x1="134.624" y1="253.64" x2="401.328" y2="282.371" gradientUnits="userSpaceOnUse">
<stop stop-color="#06A7E0"/>
<stop offset="1" stop-color="#683F99"/>
</linearGradient>
<linearGradient id="paint3_linear_150_1257" x1="133.428" y1="253.509" x2="402.486" y2="282.494" gradientUnits="userSpaceOnUse">
<stop stop-color="#06A7E0"/>
<stop offset="1" stop-color="#683F99"/>
</linearGradient>
<linearGradient id="paint4_linear_150_1257" x1="132.426" y1="253.405" x2="403.524" y2="282.609" gradientUnits="userSpaceOnUse">
<stop stop-color="#06A7E0"/>
<stop offset="1" stop-color="#683F99"/>
</linearGradient>
<linearGradient id="paint5_linear_150_1257" x1="131.574" y1="253.309" x2="404.372" y2="282.696" gradientUnits="userSpaceOnUse">
<stop stop-color="#06A7E0"/>
<stop offset="1" stop-color="#683F99"/>
</linearGradient>
<linearGradient id="paint6_linear_150_1257" x1="130.887" y1="253.242" x2="405.044" y2="282.775" gradientUnits="userSpaceOnUse">
<stop stop-color="#06A7E0"/>
<stop offset="1" stop-color="#683F99"/>
</linearGradient>
<linearGradient id="paint7_linear_150_1257" x1="130.352" y1="253.181" x2="405.571" y2="282.829" gradientUnits="userSpaceOnUse">
<stop stop-color="#06A7E0"/>
<stop offset="1" stop-color="#683F99"/>
</linearGradient>
<linearGradient id="paint8_linear_150_1257" x1="129.983" y1="253.133" x2="405.966" y2="282.864" gradientUnits="userSpaceOnUse">
<stop stop-color="#06A7E0"/>
<stop offset="1" stop-color="#683F99"/>
</linearGradient>
<linearGradient id="paint9_linear_150_1257" x1="129.726" y1="253.106" x2="406.224" y2="282.892" gradientUnits="userSpaceOnUse">
<stop stop-color="#06A7E0"/>
<stop offset="1" stop-color="#683F99"/>
</linearGradient>
<linearGradient id="paint10_linear_150_1257" x1="129.59" y1="253.1" x2="406.37" y2="282.916" gradientUnits="userSpaceOnUse">
<stop stop-color="#06A7E0"/>
<stop offset="1" stop-color="#683F99"/>
</linearGradient>
<linearGradient id="paint11_linear_150_1257" x1="129.522" y1="253.09" x2="406.42" y2="282.919" gradientUnits="userSpaceOnUse">
<stop stop-color="#06A7E0"/>
<stop offset="1" stop-color="#683F99"/>
</linearGradient>
<linearGradient id="paint12_linear_150_1257" x1="129.508" y1="253.095" x2="406.433" y2="282.926" gradientUnits="userSpaceOnUse">
<stop stop-color="#06A7E0"/>
<stop offset="1" stop-color="#683F99"/>
</linearGradient>
<linearGradient id="paint13_linear_150_1257" x1="129.504" y1="253.089" x2="406.437" y2="282.922" gradientUnits="userSpaceOnUse">
<stop stop-color="#06A7E0"/>
<stop offset="1" stop-color="#683F99"/>
</linearGradient>
<linearGradient id="paint14_linear_150_1257" x1="129.465" y1="253.091" x2="406.485" y2="282.933" gradientUnits="userSpaceOnUse">
<stop stop-color="#06A7E0"/>
<stop offset="1" stop-color="#683F99"/>
</linearGradient>
<linearGradient id="paint15_linear_150_1257" x1="129.322" y1="253.067" x2="406.604" y2="282.937" gradientUnits="userSpaceOnUse">
<stop stop-color="#06A7E0"/>
<stop offset="1" stop-color="#683F99"/>
</linearGradient>
<linearGradient id="paint16_linear_150_1257" x1="129.035" y1="253.032" x2="406.911" y2="282.966" gradientUnits="userSpaceOnUse">
<stop stop-color="#06A7E0"/>
<stop offset="1" stop-color="#683F99"/>
</linearGradient>
<linearGradient id="paint17_linear_150_1257" x1="128.502" y1="252.986" x2="407.439" y2="283.035" gradientUnits="userSpaceOnUse">
<stop stop-color="#06A7E0"/>
<stop offset="1" stop-color="#683F99"/>
</linearGradient>
<linearGradient id="paint18_linear_150_1257" x1="127.657" y1="252.897" x2="408.288" y2="283.127" gradientUnits="userSpaceOnUse">
<stop stop-color="#06A7E0"/>
<stop offset="1" stop-color="#683F99"/>
</linearGradient>
<linearGradient id="paint19_linear_150_1257" x1="126.389" y1="252.75" x2="409.544" y2="283.252" gradientUnits="userSpaceOnUse">
<stop stop-color="#06A7E0"/>
<stop offset="1" stop-color="#683F99"/>
</linearGradient>
<linearGradient id="paint20_linear_150_1257" x1="124.614" y1="252.564" x2="411.327" y2="283.45" gradientUnits="userSpaceOnUse">
<stop stop-color="#06A7E0"/>
<stop offset="1" stop-color="#683F99"/>
</linearGradient>
<linearGradient id="paint21_linear_150_1257" x1="122.21" y1="252.301" x2="413.716" y2="283.703" gradientUnits="userSpaceOnUse">
<stop stop-color="#06A7E0"/>
<stop offset="1" stop-color="#683F99"/>
</linearGradient>
<linearGradient id="paint22_linear_150_1257" x1="119.086" y1="251.959" x2="416.864" y2="284.037" gradientUnits="userSpaceOnUse">
<stop stop-color="#06A7E0"/>
<stop offset="1" stop-color="#683F99"/>
</linearGradient>
<linearGradient id="paint23_linear_150_1257" x1="115.121" y1="251.537" x2="420.829" y2="284.47" gradientUnits="userSpaceOnUse">
<stop stop-color="#06A7E0"/>
<stop offset="1" stop-color="#683F99"/>
</linearGradient>
<linearGradient id="paint24_linear_150_1257" x1="110.235" y1="251.014" x2="425.698" y2="284.997" gradientUnits="userSpaceOnUse">
<stop stop-color="#06A7E0"/>
<stop offset="1" stop-color="#683F99"/>
</linearGradient>
<linearGradient id="paint25_linear_150_1257" x1="104.354" y1="250.383" x2="431.583" y2="285.634" gradientUnits="userSpaceOnUse">
<stop stop-color="#06A7E0"/>
<stop offset="1" stop-color="#683F99"/>
</linearGradient>
<linearGradient id="paint26_linear_150_1257" x1="97.4184" y1="249.631" x2="438.522" y2="286.376" gradientUnits="userSpaceOnUse">
<stop stop-color="#06A7E0"/>
<stop offset="1" stop-color="#683F99"/>
</linearGradient>
<linearGradient id="paint27_linear_150_1257" x1="89.386" y1="248.767" x2="446.559" y2="287.243" gradientUnits="userSpaceOnUse">
<stop stop-color="#06A7E0"/>
<stop offset="1" stop-color="#683F99"/>
</linearGradient>
<linearGradient id="paint28_linear_150_1257" x1="80.229" y1="247.783" x2="455.702" y2="288.231" gradientUnits="userSpaceOnUse">
<stop stop-color="#06A7E0"/>
<stop offset="1" stop-color="#683F99"/>
</linearGradient>
<linearGradient id="paint29_linear_150_1257" x1="69.934" y1="246.669" x2="466.007" y2="289.335" gradientUnits="userSpaceOnUse">
<stop stop-color="#06A7E0"/>
<stop offset="1" stop-color="#683F99"/>
</linearGradient>
<linearGradient id="paint30_linear_150_1257" x1="58.4954" y1="245.444" x2="477.448" y2="290.575" gradientUnits="userSpaceOnUse">
<stop stop-color="#06A7E0"/>
<stop offset="1" stop-color="#683F99"/>
</linearGradient>
<linearGradient id="paint31_linear_150_1257" x1="45.9236" y1="244.091" x2="490.008" y2="291.929" gradientUnits="userSpaceOnUse">
<stop stop-color="#06A7E0"/>
<stop offset="1" stop-color="#683F99"/>
</linearGradient>
<linearGradient id="paint32_linear_150_1257" x1="32.2365" y1="242.612" x2="503.696" y2="293.4" gradientUnits="userSpaceOnUse">
<stop stop-color="#06A7E0"/>
<stop offset="1" stop-color="#683F99"/>
</linearGradient>
<linearGradient id="paint33_linear_150_1257" x1="17.4261" y1="241.016" x2="518.509" y2="294.995" gradientUnits="userSpaceOnUse">
<stop stop-color="#06A7E0"/>
<stop offset="1" stop-color="#683F99"/>
</linearGradient>
<linearGradient id="paint34_linear_150_1257" x1="1.53666" y1="239.304" x2="534.405" y2="296.707" gradientUnits="userSpaceOnUse">
<stop stop-color="#06A7E0"/>
<stop offset="1" stop-color="#683F99"/>
</linearGradient>
</defs>
</svg>
